<?xml version="1.0" encoding="utf-8"?>
<!-- Generator: Adobe Illustrator 17.0.0, SVG Export Plug-In . SVG Version: 6.00 Build 0)  -->
<!DOCTYPE svg PUBLIC "-//W3C//DTD SVG 1.1//EN" "http://www.w3.org/Graphics/SVG/1.1/DTD/svg11.dtd">
<svg version="1.1" id="Layer_1" xmlns="http://www.w3.org/2000/svg" xmlns:xlink="http://www.w3.org/1999/xlink" x="0px" y="0px"
	 width="1084.02px" height="1228.32px" viewBox="0 0 1084.02 1228.32" enable-background="new 0 0 1084.02 1228.32"
	 xml:space="preserve">
<g>
	<defs>
		<rect id="SVGID_1_" y="-0.004" width="1084.021" height="1228.324"/>
	</defs>
	<clipPath id="SVGID_2_">
		<use xlink:href="#SVGID_1_"  overflow="visible"/>
	</clipPath>
	<path clip-path="url(#SVGID_2_)" fill="#BF725A" d="M749.361,273.981c-5.134,0.499-7.86,4.237-10.396,8.116
		c-2.665,4.073-5.259,8.199-7.735,12.389c-6.075,10.281-13.51,19.479-21.706,28.135c-20.97,22.144-43.036,43.27-62.476,66.838
		c-13.956,16.922-26.621,34.792-38.875,52.977c-17.182,25.498-31.174,52.713-44.081,80.535c-9.221,19.876-17.71,40.06-25.456,60.556
		c-0.449,1.187-1.094,2.301-2.016,4.211c-0.729-7.47-1.464-14.114-2.011-20.772c-1.688-20.547-3.719-41.07-4.371-61.692
		c-0.23-7.261,1.336-14.146,3.506-21.027c4.054-12.86,11.217-24.037,18.537-35.125c15.315-23.201,29.454-47.068,41.318-72.234
		c4.693-9.955,8.358-20.318,12.011-30.692c4.426-12.569,8.14-25.35,11.663-38.184c1.857-6.765,3.214-13.675,4.601-20.559
		c2.55-12.647,5.097-25.298,7.385-37.994c2.899-16.09,4.487-32.318,4.872-48.683c0.281-12.009,1.053-24.006,1.596-36.008
		c0.078-1.714,0.049-3.434,0.164-5.145c0.098-1.45-0.615-2.441-1.612-3.365c-1.9-0.152-2.649,1.261-3.6,2.535
		c-4.536,6.079-8.35,12.628-12.447,18.992c-5.424,8.421-11.308,16.498-17.827,24.119c-13.32,15.568-26.262,31.422-36.708,49.142
		c-5.17,8.771-9.45,17.956-12.981,27.489c-3.221,8.695-6.621,17.341-9.405,26.178c-5.041,15.999-9.093,32.246-11.32,48.925
		c-1.138,8.519-2.456,17.008-3.286,25.571c-1.024,10.554-1.528,21.13-1.645,31.72c-0.234,21.306-0.094,42.612,1.183,63.89
		c0.455,7.576,0.502,15.107,0.025,22.703c-0.455,7.246,0.189,14.557,0.217,21.84c0.057,15.042,1.182,30.016,2.652,44.972
		c0.055,0.559,0.157,1.144-0.403,1.791c-0.943-0.611-1.329-1.662-1.881-2.551c-3.33-5.368-6.85-10.604-11.037-15.345
		c-3.768-4.269-6.182-9.263-8.057-14.55c-0.909-2.562-1.604-5.201-2.373-7.811c-4.14-14.063-11.187-26.639-19.757-38.416
		c-6.242-8.578-12.67-17.004-20.042-24.683c-8.58-8.938-18.208-16.562-28.428-23.513c-4.614-3.138-9.082-6.506-13.482-9.941
		c-2.594-2.025-4.859-4.441-6.767-7.167c-0.707-1.009-1.214-2.366-2.828-2.304c-0.853,0.585-0.873,1.407-0.659,2.289
		c0.842,3.479,1.111,7.04,1.469,10.585c1.509,14.896,7.453,28.045,15.449,40.51c9.865,15.378,22.389,28.24,36.516,39.638
		c9.364,7.555,18.945,14.844,28.251,22.467c6.755,5.533,13.559,11.054,19.095,17.91c5.512,6.828,10.043,14.31,14.495,21.835
		c1.385,2.341,1.98,5.073,2.156,7.797c0.294,4.57,0.552,9.149,0.595,13.725c0.048,5.214-1.228,10.225-2.976,15.102
		c-4.836,13.484-9.086,27.158-13.322,40.838c-4.49,14.502-9.157,28.95-13.599,43.466c-3.982,13.012-7.725,26.098-11.643,39.129
		c-3.919,13.03-7.964,26.023-11.883,39.053c-3.176,10.561-6.444,21.09-9.982,31.538c-5.741,16.956-11.864,33.761-18.697,50.313
		c-10.775,26.108-23.919,51.04-37.314,75.852c-0.333,0.616-0.532,1.344-1.707,1.645c-0.29-5.812-0.312-11.544,0.605-17.22
		c6.844-42.361,7.515-84.977,4.882-127.677c-3.245-52.621-8.348-105.059-17.388-157.043c-5.569-32.026-11.572-63.977-18.999-95.632
		c-4.121-17.562-7.009-35.358-10.716-52.994c-0.47-2.238-0.933-4.483-1.544-6.685c-1.143-4.124-0.676-8.118,0.369-12.207
		c1.384-5.412,2.422-10.912,3.593-16.377c1.356-6.324,3.141-12.511,6.32-18.186c1.323-2.365,2.911-4.588,4.468-6.814
		c1.316-1.882,2.497-3.823,3.548-5.87c0.969-1.89,0.909-3.52-0.594-5.165c3.561-3.415,7.637-6.102,11.427-9.138
		c21.189-16.968,37.755-37.318,47.632-62.945c5.772-14.976,9.209-30.346,10.856-46.236c1.794-17.303,1.768-34.552-0.88-51.766
		c-2.938-19.1-9.088-37.211-16.95-54.79c-1.577-3.525-3.193-7.035-4.894-10.501c-0.742-1.513-1.312-3.205-3.394-4.477
		c-12.955,6.258-26.309,12.435-40.932,15.741c-1.978-4.298-3.868-8.453-5.804-12.585c-0.789-1.685-1.645-3.341-2.535-4.974
		c-0.878-1.612-2.145-2.68-4.29-2.532c-25.054,13.58-50.929,25.257-80.203,27.587c-3.197-6.783-6.442-13.476-10.866-19.493
		c-0.295-0.401-0.967-0.525-1.567-0.831c-3.609,3.768-6.833,7.768-10.587,11.276c-6.364,5.948-12.448,12.215-19.629,17.222
		c-13.497,9.411-28.525,15.086-44.613,18.158c-8.017,1.53-16.088,2.4-24.258,2.219c-0.716-0.016-1.436-0.125-2.304,0.6
		c-1.317,1.769-0.069,3.593,0.708,5.355c2.372,5.373,4.861,10.694,7.275,16.049c0.386,0.855,1.173,1.633,0.615,3.1
		c-5.206-4.848-6.976-12.425-13.033-16.333c-5.145,3.495-9.024,7.552-13.11,11.308c-9.953,9.148-20.785,17.088-32.042,24.504
		c-6.614,4.357-13.515,8.092-21.231,10.128c-1.756,0.464-3.26,1.192-3.326,3.656c1.932,4.503,5.485,8.324,8.11,12.681
		c-8.723,11.776-21.819,15.344-34.44,18.932c-0.481,1.579-0.111,2.546,0.278,3.447c5.392,12.513,11.209,24.801,19.014,36.049
		c16.642,23.979,38.068,42.598,63.384,56.943c20.93,11.86,43.542,18.094,67.318,20.587c17.263,1.809,34.566,1.366,51.871,0.975
		c5.128-0.116,10.262-0.21,15.39-0.118c1.452,0.027,2.833-0.281,3.802-0.312c13.123,6.83,24.717,15.024,34.41,25.808
		c5.265,5.857,10.924,11.358,16.398,17.028c0.889,0.921,1.812,1.792,2.343,3.029c5.991,13.953,11.297,28.129,14.881,42.928
		c2.019,8.336,4.327,16.61,6.75,24.84c4.248,14.432,6.53,29.273,9.391,43.992c7.453,38.355,13.509,76.927,17.573,115.798
		c1.696,16.217,3.162,32.455,4.318,48.72c0.04,0.561,0.25,1.131-0.074,1.528c-2.625-3.754-5.552-7.388-7.873-11.374
		c-4.847-8.325-10.366-16.148-16.344-23.68c-5.075-6.395-10.245-12.711-15.354-19.073c-4.669-5.816-7.855-12.644-11.151-19.325
		c-10.159-20.597-21.44-40.525-34.987-59.115c-19.584-26.875-44.414-47.688-73.535-63.507
		c-14.831-8.055-30.282-14.745-46.002-20.883c-9.976-3.895-20.04-7.525-30.165-10.974c-10.548-3.595-21.287-6.627-31.852-10.173
		c-8.918-2.994-17.984-5.6-26.591-9.482c-0.875-0.395-1.845-0.859-2.862-0.167c-0.917,1.33,0.198,2.15,0.89,2.916
		c1.728,1.91,3.527,3.763,5.396,5.535c5.591,5.3,9.68,11.652,13.201,18.432c7.259,13.979,14.523,27.957,21.847,41.901
		c9.09,17.305,19.314,33.864,32.266,48.61c15.258,17.371,33.801,30.391,54.226,40.907c12.121,6.239,24.733,11.279,37.67,15.579
		c12.644,4.202,25.32,8.314,38.207,11.673c10.938,2.851,21.951,5.451,33.176,7.047c4.954,0.704,9.835,1.921,14.732,2.902
		c4.05,3.737,7.159,8.225,10.559,12.463c4.395,5.475,8.785,10.956,13.093,16.501c8.983,11.563,15.285,24.511,19.666,38.436
		c0.387,1.228,0.654,2.514,1.199,3.667c2.445,5.172,2.908,10.683,3.142,16.29c0.81,19.438,1.495,38.882,0.69,58.328
		c-0.402,9.706-1.049,19.407-1.832,29.101c-1.155,14.292-3.227,28.446-5.583,42.563c-0.87,5.214-2.291,10.353-3.727,15.451
		c-2.25,7.991-4.816,15.892-7.075,23.88c-1.627,5.752-4.412,10.826-8.005,15.554c-17.868,23.515-36.865,46.068-56.945,67.729
		c-30.212,32.588-61.155,64.449-93.739,94.681c-11.351,10.531-23.099,20.612-35.442,29.983c-3.082,2.34-6.073,4.822-8.345,8.009
		c-1.677,2.353-1.605,2.801,0.445,5.743c1.729,0.109,3.186-0.875,4.674-1.641c3.967-2.04,7.563-4.651,11.1-7.353
		c24.065-18.377,46.72-38.382,68.446-59.449c30.256-29.337,58.977-60.112,86.113-92.358c8.76-10.41,17.489-20.884,25.306-32.005
		c4.872-6.931,10.281-13.385,15.371-20.111c6.48-8.566,11.774-17.914,16.932-27.334c6.183-11.296,12.117-22.721,18.061-34.144
		c11.312-21.74,21.124-44.143,29.562-67.132c5.72-15.584,11.138-31.278,15.998-47.168c4.355-14.238,8.593-28.511,12.932-42.755
		c2.927-9.606,8.519-17.797,14.974-25.309c7.003-8.15,14.611-15.755,22.243-23.332c5.529-5.489,12.15-8.48,19.584-9.938
		c9.314-1.827,18.771-1.982,28.215-1.846c12.224,0.175,24.259,1.857,36.043,5.18c4.126,1.164,8.444,1.567,12.399,3.447
		c3.511,1.669,6.194,4.008,7.813,7.584c4.199,9.274,8.138,18.634,10.897,28.468c5.268,18.781,14.287,35.591,27.075,50.327
		c9.278,10.693,20.628,18.465,33.825,23.613c21.382,8.339,43.421,9.66,65.931,6.503c17.837-2.502,35.013-7.371,51.679-14.131
		c6.236-2.529,12.482-5.039,18.707-7.6c1.318-0.543,2.592-1.216,3.827-1.93c0.809-0.47,1.138-1.257,0.711-2.434
		c-1.481-1.326-3.567-1.39-5.494-1.323c-3.087,0.106-6.005-0.525-8.858-1.469c-3.416-1.13-6.923-1.835-10.414-2.64
		c-12.693-2.924-25.099-6.742-37.206-11.587c-11.527-4.612-23.079-9.148-34.521-13.983c-22.244-9.399-42.829-21.659-62.677-35.247
		c-12.546-8.589-25.517-16.364-39.726-21.911c-9.847-3.844-19.562-8.112-29.618-11.306c-7.323-2.325-15.006-3.632-22.784-4.177
		c-13.567-0.95-27.111-1.197-40.676-0.074c-2.089,0.173-4.17,0.889-7.143,0.301c23.094-19.269,45.693-38.044,72.239-51.26
		c4.958,1.314,9.189,3.774,13.58,5.82c9.074,4.229,17.903,8.983,27.406,12.266c8.56,2.957,17.279,5.275,26.253,6.466
		c11.221,1.49,22.49,2.331,33.827,1.726c30.128-1.611,58.887-8.117,85.62-22.748c21.922-11.997,41.568-26.955,59.764-43.934
		c8.484-7.917,16.758-16.06,25.239-23.981c9.334-8.715,19.114-16.889,29.974-23.69c1.056-0.661,2.312-1.198,2.891-2.73
		c-1.011-1.826-2.779-1.437-4.41-1.25c-4.682,0.536-9.346,1.197-14.086,1.143c-8.187-0.092-16.271-1.141-24.332-2.44
		c-17.833-2.876-35.541-6.456-53.328-9.572c-20.04-3.511-40.23-5.803-60.673-4.44c-13.656,0.911-26.851,3.883-39.887,7.931
		c-16.599,5.152-31.845,12.879-45.871,23.088c-5.345,3.89-10.287,8.249-15.007,12.862c-11.191,10.93-21.807,22.372-30.772,35.239
		c-4.174,5.992-8.225,12.071-12.223,18.183c-1.615,2.467-3.643,4.357-6.159,5.85c-6.039,3.585-12.02,7.269-18.048,10.872
		c-14.544,8.696-28.227,18.601-41.413,29.225c-13.949,11.239-27.802,22.583-40.289,35.475c-4.68,4.831-9.231,9.788-13.854,14.674
		c-0.88,0.931-1.82,1.805-3.264,3.229c3.166-10.343,6.134-20.016,9.088-29.693c2.843-9.311,5.613-18.645,8.525-27.935
		c3.553-11.335,7.217-22.636,10.839-33.949c3.361-10.496,7.053-20.877,10.803-31.241c5.695-15.74,11.887-31.284,18.494-46.659
		c9.55-22.22,19.808-44.108,31.122-65.495c8.239-15.574,17.461-30.541,27.271-45.172c10.452-15.586,21.352-30.846,33.182-45.403
		c13.287-16.348,27.618-31.772,42.313-46.872c5.542-5.693,11.283-10.984,18.803-14.953c5.333,0,11.057-1.298,16.892-1.636
		c6.741-0.392,13.43-0.253,20.111,0.781c4.243,0.657,8.499,1.313,12.775,1.656c4.164,0.334,8.302-0.008,12.028-2.625
		c5.07,3.436,8.839,8.093,12.365,12.959c6.919,9.55,12.369,19.962,17.786,30.4c20.537,39.571,51.382,68.414,91.536,87.432
		c13.691,6.484,28.318,10.009,43.162,12.687c2.116,0.381,4.228,0.785,6.351,1.134c1.391,0.229,2.799,0.763,4.508-0.207
		c0.698-3.38-1.082-6.734-1.07-10.231c0.011-3.555-0.645-7.08-0.239-10.674c0.415-3.683,0.197-7.425,0.937-11.092
		c0.709-3.512,1.177-7.083,2.075-10.544c0.891-3.431,2.186-6.757,3.465-10.615c14.404,4.571,28.835,7.27,43.676,6.634
		c14.78-0.632,29.292-2.928,43.497-7.666c-0.766-2.033-2.355-2.575-3.55-3.512c-5.901-4.632-11.28-9.678-14.711-16.549
		c-2.571-5.149-3.442-10.562-3.251-16.207c0.301-8.853,2.366-17.257,6.365-25.202c3.372-6.701,5.573-13.776,6.508-21.26
		c0.792-6.339-0.278-12.546-0.956-18.788c-0.147-1.35-0.951-2.365-2.026-3.132c-3.861-1.508-7.919-1.202-11.891-1.318
		c-5.853-0.171-11.68-0.466-17.505-1.12c-6.818-0.764-13.666-1.245-20.498-1.877c-6.536-0.605-13.067-1.247-19.602-2.279
		c6.294-0.676,12.605-1.229,18.881-2.049c17.043-2.228,33.227-7.306,48.534-15.11c3.395-1.731,7.054-3.284,8.745-7.017
		c-0.198-1.539-1.227-2.421-1.902-3.499c-6.998-11.18-13.795-22.464-18.83-34.713c-4.372-10.637-7.311-21.648-9.096-32.997
		c-0.976-6.201-2.095-12.367-2.616-18.644c-0.47-5.644-2.362-7.184-8.145-6.95c-15.708,0.636-31.46-0.135-47.136,1.47
		c-0.11,0.012-0.236-0.129-0.871-0.502c15.289-5.097,29.693-11.478,45.195-16.107c-5.127-8.56-10.958-16.204-13.623-25.582
		c-2.581-9.082-5.615-18.049-7.318-27.346c-1.729-9.434-2.777-18.937-2.722-28.589c0.053-9.498,2.841-18.571,3.463-28.029
		c-0.831-0.386-1.819-0.097-2.734,0.128c-8.32,2.049-16.73,3.646-24.795,6.782c-14.571,5.665-29.118,11.34-42.833,18.918
		c-3.76,2.077-7.435,4.305-11.272,6.534c-1.973-0.999-3.402-2.561-4.663-4.262c-7.636-10.289-14.401-21.035-18.107-33.473
		c-1.105-3.712-1.896-7.482-2.806-11.231c-0.398-1.634-0.462-3.373-1.507-4.898c-2.445,0.633-4.507,1.901-6.595,3.132
		c-15.138,8.93-27.7,20.776-38.761,34.299c-15.805,19.326-28.027,40.765-37.517,63.817c-5.077,12.331-9.347,24.914-12.913,37.772
		c-4.569,16.472-7.206,33.33-10.609,50.036c-1.687,8.287-3.281,16.597-5.202,24.83C753.415,264.045,751.843,268.815,749.361,273.981
		 M1023.199,274.502c-15.414,8.194-31.891,11.713-48.798,13.758c-19.703,2.383-39.497,1.87-59.274,2.052
		c-9.886,0.091-19.786,0.088-29.654,0.61c-13.534,0.715-27.046,1.865-40.565,2.868c-23.099,1.715-45.054,7.659-65.843,17.89
		c-0.354,0.174-0.814,0.133-1.161,0.183c-1.128-0.923-1.167-1.976-0.476-3.561c4.428-2.454,9.236-4.982,13.91-7.736
		c18.415-10.848,37.679-19.875,57.668-27.432c34.143-12.907,69.308-20.194,105.914-20.7c17.578-0.243,35.189-1.001,52.611-3.836
		c1.003-0.163,1.986-0.219,3.24,0.587c0.258,1.749,1.985,3.367,1.6,5.896c-2.64,0.791-5.207,1.658-7.824,2.323
		c-7.494,1.905-15.196,2.42-22.849,3.229c-0.944,0.099-1.827,0.049-3.107,1.703c12.272-1.162,23.724-1.871,34.72-6.079
		c2.195,3.529,3.736,7.124,5.349,10.697c-1.931,1.445-3.939,1.835-5.834,2.276c-16.969,3.949-34.177,5.509-51.585,4.867
		c-7.67-0.283-15.337-0.88-23.007-0.896c-17.041-0.037-34.027,1.213-50.993,2.71c-1.255,0.111-2.355,0.403-3.451,1.096
		c1.533,0.354,3.034,0.444,4.517,0.312c23.873-2.125,47.775-3.044,71.727-1.676c13.718,0.784,27.312-0.196,40.862-2.381
		c6.325-1.019,12.485-2.681,18.789-4.384C1020.877,270.787,1022,272.583,1023.199,274.502 M1009.56,246.44
		c-17.636,2.89-35.168,3.398-52.695,3.973c-15.151,0.498-30.266,1.335-45.269,3.72c-25.332,4.027-49.61,11.635-73.36,21.147
		c-21.728,8.702-41.993,20.221-62.156,31.951c-0.322,0.187-0.661,0.54-1.144,0.202c-0.785-0.933-1.745-1.824-1.654-3.342
		c0.412-0.375,0.81-0.78,1.25-1.132c8.949-7.17,18.182-13.974,27.706-20.34c24.315-16.255,49.586-30.852,76.293-42.873
		c35.652-16.048,72.726-26.372,112.018-27.741c3.811-0.132,7.661-0.634,11.22,1.306c0.875,5.288,1.728,10.445,2.664,16.095
		c-18.519,0.388-36.723,1.058-54.819,3.303c-18.059,2.24-35.876,5.696-53.386,10.665c-19.757,5.608-47.09,16.478-50.695,20.403
		c10.176-3.849,20.036-8.503,30.288-12.166c10.346-3.698,20.856-6.807,31.509-9.481c10.624-2.667,21.352-4.815,32.176-6.435
		c10.812-1.617,21.687-2.691,32.604-3.384c10.876-0.69,21.757-0.982,32.73-1.254C1006.447,236.293,1007.987,241.311,1009.56,246.44
		 M765.085,290.778c5.562-3.605,10.255-8.149,14.735-12.953c8.593-9.219,15.658-19.59,22.705-29.973
		c11.701-17.241,23.786-34.18,37.871-49.608c10.713-11.735,22.174-22.679,34.824-32.274c8.781-6.66,18.068-12.611,27.696-18.055
		c15.989-9.041,32.714-16.409,49.879-22.837c4.242-1.588,8.583-2.938,13.405-3.949c0.837,6.74,2.306,12.95,4.101,19.135
		c-1.035,0.349-1.694,0.607-2.373,0.795c-26.257,7.272-51.95,16.013-75.807,29.437c-6.355,3.578-12.771,7.107-18.428,11.791
		c-0.523,0.432-1.648,0.726-0.87,1.978c29.747-20.813,63.125-33.125,97.935-42.551c1.08,2.771,2.148,5.265,3.024,7.825
		c0.901,2.634,2.71,4.956,2.989,7.947c-6.279,1.667-12.373,3.124-18.372,4.906c-22.714,6.749-44.748,15.229-66.068,25.629
		c-17.163,8.372-33.622,17.836-48.627,29.677c-14.833,11.706-28.693,24.474-41.2,38.675c-8.206,9.317-16.006,18.992-24.668,27.908
		c-3.291,3.387-6.595,6.74-10.47,9.467c-0.294,0.207-0.783,0.138-1.365,0.225C765.469,292.934,764.917,291.978,765.085,290.778
		 M784.209,318.074c1.558-0.253,2.806-0.443,4.05-0.66c8.299-1.447,16.692-1.413,25.07-1.567
		c10.686-0.197,21.365,0.213,32.019,0.893c6.547,0.417,13.09,1.031,19.62,1.836c7.667,0.944,15.38,1.635,22.953,3.125
		c25.308,4.981,50.659,9.735,75.765,15.729c13.377,3.193,26.943,5.595,40.431,8.32c3.787,0.766,7.581,1.39,11.463,1.669
		c3.975,0.287,7.889,1.315,11.916,1.335c0.67,0.004,1.448,0.095,1.986,1.195c-1.311,5.146-3.983,10.03-5.938,15.092
		c-3.111,1.332-6.159,0.484-9.071,0.295c-13.066-0.849-25.73-3.978-38.233-7.664c-2.856-0.842-5.768-1.641-8.57-2.712
		c-5.837-2.231-11.673-4.462-17.503-6.712c-7.159-2.762-14.273-5.65-21.486-8.264c-2.743-0.994-5.386-2.55-8.595-2.923
		c0.314,1.364,0.963,1.675,1.678,1.821c2.395,0.491,4.582,1.616,6.825,2.475c12.88,4.936,25.626,10.205,38.648,14.786
		c8.785,3.091,17.734,5.535,26.764,7.696c7.391,1.769,14.934,2.62,22.533,2.945c1.915,0.081,3.822,0.325,6.082,0.526
		c-2.972,5.274-2.882,11.037-4.794,16.709c-4.631-0.454-9.208-0.542-13.633-1.408c-10.933-2.14-21.58-5.363-32.173-8.84
		c-6.755-2.217-13.492-4.505-20.144-6.974c-12.106-4.493-24.07-9.383-36.016-14.294c-11.816-4.857-23.679-9.572-35.633-14.087
		c-9.453-3.569-18.967-7.005-28.658-9.725c-7.415-2.082-14.842-4.4-22.514-5.522c-7.777-1.138-15.522-2.461-23.366-3.195
		c-6.668-0.624-13.32-1.212-20.017-1.286C785.282,318.684,784.9,318.375,784.209,318.074 M1022.529,411.284
		c-0.478,0.187-0.719,0.346-0.974,0.373c-16.253,1.757-32.222-0.251-48.069-3.713c-2.513-0.549-4.93-1.539-7.446-2.065
		c-6.191-1.294-12.082-3.504-17.93-5.8c-9.849-3.867-19.192-8.809-28.565-13.693c-22.945-11.958-45.043-25.311-66.608-39.605
		c-18.01-11.938-37.494-20.591-58.9-24.492c-0.423-0.077-0.867-0.103-1.261-0.254c-0.403-0.154-1.081-0.048-1.058-0.798
		c2.908-0.963,5.698,0.085,8.517,0.218c4.988,0.236,9.982,0.521,14.886,1.464c15.583,2.998,31.298,5.433,46.294,10.951
		c4.938,1.816,10.039,3.19,14.973,5.017c7.456,2.762,14.85,5.697,22.235,8.644c7.782,3.106,15.513,6.338,23.286,9.466
		c6.716,2.704,13.443,5.383,20.196,7.991c5.7,2.202,11.432,4.322,17.175,6.413c5.476,1.996,10.984,3.893,16.542,5.667
		c3.95,1.261,7.992,2.163,11.928,3.401c8.225,2.587,16.556,4.454,25.175,4.983c1.541,0.094,3.09,0.306,4.735,1.068
		c-1.063,4.159-0.298,8.269-0.623,12.368c-1.356,0.181-2.497,0.555-3.587,0.443c-6.961-0.713-13.931-1.4-20.863-2.35
		c-9.674-1.326-18.942-4.379-28.135-7.477c-9.255-3.118-18.165-7.187-26.819-11.759c-17.018-8.99-34.039-17.978-51.043-26.995
		c-0.858-0.455-1.605-0.899-2.673-0.412c0.719,1.641,2.186,2.091,3.373,2.72c14.374,7.628,28.88,15.013,43.163,22.807
		c15.65,8.541,31.956,15.403,49.126,20.141c9.4,2.594,19.081,3.706,28.786,4.513c3.095,0.257,6.199,0.422,9.491,0.642
		C1018.691,404.912,1020.44,408.168,1022.529,411.284 M755.571,279.948c0.13-0.506,0.197-1.084,0.424-1.589
		c2.92-6.48,5.713-12.982,7.7-19.849c1.904-6.584,4.239-13.046,5.513-19.802c1.49-7.888,4.41-15.428,5.645-23.376
		c0.065-0.42,0.213-0.835,0.375-1.231c2.233-5.45,3.065-11.3,4.782-16.908c1.876-6.132,3.729-12.292,5.821-18.336
		c3.114-8.988,6.456-17.913,10.305-26.639c5.751-13.042,12.195-25.704,20.122-37.562c9.485-14.192,21.429-26.027,35.267-35.961
		c5.061-3.634,10.199-7.19,16.313-9.06c1.986,4.156,3.893,8.147,5.8,12.138c0.3,0.995-1.748,1.13-0.796,2.274
		c0.634-0.016,1.299-0.033,2.079-0.053c2.325,3.74,4.65,7.479,6.987,11.24c-2.065,1.014-3.934,1.767-5.638,2.794
		c-20.937,12.617-39.066,28.385-53.769,47.995c-10.201,13.606-18.399,28.287-24.367,44.241c-2.036,5.443-4.231,10.825-6.07,16.344
		c-1.795,5.387-3.769,10.713-5.558,16.101c-1.793,5.397-3.246,10.915-5.226,16.24c-2.569,6.902-5.413,13.707-8.322,20.475
		c-3.309,7.699-6.915,15.261-12.234,21.841c-0.668,0.826-1.047,2.082-2.53,2.084C757.282,282.486,756.299,281.658,755.571,279.948
		 M267.443,198.722c0.956,0.729,0.913,1.657,1.142,2.425c3.261,10.92,6.419,21.871,9.72,32.779
		c6.629,21.903,15.614,42.885,25.097,63.665c12.114,26.548,21.915,53.857,27.373,82.606c1.744,9.187,3.528,18.373,3.418,27.801
		c-0.663,0.316-1.16,0.597-1.69,0.789c-0.393,0.141-0.828,0.166-1.191,0.232c-0.591-0.437-0.444-1.049-0.55-1.572
		c-2.104-10.252-5.133-20.233-9.111-29.902c-9.721-23.626-21.569-46.183-34.634-68.114c-10.631-17.844-22.256-35.093-31.977-53.481
		c-5.892-11.145-11.593-22.38-16.092-34.177c-0.493-1.292-1.375-2.572-0.571-4.427c4.856-2.053,9.609-4.916,14.494-7.412
		c1.183,1.252,1.539,2.487,1.996,3.68c3.475,9.065,7.188,18.045,10.403,27.201c5.919,16.857,12.664,33.367,20.01,49.642
		c0.353,0.783,0.438,1.963,2.35,1.84c-5.661-14.039-12.203-27.361-17.099-41.343c-4.956-14.155-10.452-28.107-16.01-42.077
		C258.994,205.362,263.236,202.028,267.443,198.722 M235.71,218.515c2.139,5.261,3.947,10.241,6.154,15.038
		c8.57,18.623,18.391,36.585,29.363,53.897c13.89,21.916,26.864,44.341,38.307,67.637c7.444,15.154,14.322,30.529,18.372,47.008
		c0.63,2.564,1.443,5.098,1.485,7.812c-0.635,0.122-1.024,0.196-1.36,0.26c-0.268-0.285-0.569-0.461-0.642-0.705
		c-4.694-15.861-13.295-29.699-22.487-43.209c-6.618-9.725-14.45-18.494-22.045-27.447c-11.016-12.987-22.56-25.512-33.132-38.897
		c-14.193-17.97-26.072-37.302-35.835-57.964c-2.237-4.735-4.43-9.531-5.486-14.913c4.932-1.258,9.711-2.476,14.637-3.733
		c0.778,2.361,1.436,4.375,2.105,6.386c5.454,16.39,13.843,31.356,22.829,45.963c6.153,10.001,12.945,19.615,19.604,29.297
		c3.652,5.308,7.746,10.313,10.826,16.01c0.338,0.626,0.834,1.21,1.717,0.72c0.162-0.776-0.39-1.28-0.687-1.883
		c-3.054-6.221-7.627-11.426-11.443-17.138c-9.387-14.051-19.107-27.883-27.163-42.79c-4.828-8.935-9.496-17.93-12.971-27.481
		c-1.148-3.156-2.537-6.301-2.856-9.948C228.617,221.111,232.09,219.84,235.71,218.515 M306.823,412.15
		c-3.08-1.931-5.821-4.181-8.885-5.994c-6.165-3.649-12.579-6.804-19.056-9.832c-17.214-8.05-34.677-15.57-51.477-24.494
		c-21.912-11.639-43.066-24.493-62.912-39.405c-18.992-14.271-35.628-31.034-51.05-49.04c-0.272-0.318-0.553-0.678-0.176-1.44
		c0.944-0.367,2.092-0.885,3.285-1.261c1.341-0.424,2.607-1.172,4.098-1.134c11.373,13.505,24.111,25.558,37.646,36.801
		c14.629,12.152,39.204,29.024,43.452,29.431c-14.327-9.804-28.756-19.472-42.185-30.498c-13.458-11.05-26.002-23.036-37.484-36.563
		c5.71-2.935,10.68-6.273,15.877-9.429c1.036,1.463,1.983,2.868,2.997,4.222c7.808,10.438,16.514,20.12,25.197,29.817
		c12.638,14.115,27.024,26.246,42.765,36.721c18.001,11.98,36.285,23.534,54.275,35.53c13.404,8.937,26.344,18.53,38.188,29.511
		C303.573,407.127,305.796,409.149,306.823,412.15 M337.895,190.518c8.016,17.479,20.428,65.062,23.607,110.383
		c2.083,29.698,0.864,59.199-3.259,88.85c-3.502-1.661-5.774-0.028-8.169,2.417c0.13-8.641,0.387-16.848-0.21-25.036
		c-0.601-8.234-1.12-16.479-1.969-24.689c-0.85-8.222-2.042-16.41-3.125-24.608c-1.083-8.208-2.483-16.363-3.997-24.503
		c-1.541-8.288-3.268-16.535-5.293-24.714c-1.992-8.045-4.102-16.063-6.305-24.053c-2.205-7.993-4.84-15.856-7.525-23.702
		c-2.657-7.766-6.072-15.271-8.588-23.117c4.365-1.155,8.217-2.174,12.091-3.2c0.345,0.37,0.717,0.63,0.896,0.988
		c0.445,0.891,0.82,1.82,1.193,2.747c4.708,11.693,7.556,23.915,10.215,36.183c2.802,12.929,5.413,25.897,7.45,38.975
		c0.13,0.835-0.21,2.267,1.734,2.801c-1.052-9.694-3.044-18.844-4.781-28.034c-1.722-9.107-3.671-18.162-5.872-27.169
		c-2.242-9.174-5.288-18.079-8.696-26.973C330.889,192.861,334.269,191.731,337.895,190.518 M375.17,173.01
		c1.015,1.943,1.905,3.409,2.574,4.969c2.313,5.394,4.808,10.73,6.773,16.252c11.506,32.319,16.451,65.744,16.472,99.96
		c0.007,11.463-0.728,22.884-2.047,34.278c-1.604,13.865-4.778,27.325-9.682,40.393c-4.746,12.646-11.527,24.244-18.328,35.831
		c-0.825,1.408-1.433,3.114-3.182,3.83c-1.507-0.783-2.386-2.023-2.876-3.511c0.183-0.914,0.228-1.801,0.537-2.583
		c4.686-11.867,8.04-24.13,10.681-36.58c2.879-13.575,5.654-27.163,6.64-41.072c0.381-5.389,0.966-10.797,1.142-16.183
		c0.339-10.341,0.192-20.697-0.567-31.038c-1.984-27.03-7.659-53.217-17.483-78.502c-2.265-5.829-4.96-11.442-8.115-17.066
		c2.691-1.308,5.096-2.478,7.886-3.835c13.768,29.209,22.616,59.51,26.001,91.501c1.248-0.752,0.615-1.712,0.616-2.413
		c0.001-5.008-0.794-9.952-1.649-14.864c-4.502-25.882-12.289-50.745-23.527-74.142c0.395-1.179,1.09-1.464,1.699-1.798
		C370.736,175.34,372.762,174.287,375.17,173.01 M777.256,327.091c0.135-0.322,0.269-0.643,0.403-0.964
		c1.778,0.764,3.584,1.466,5.329,2.3c15.922,7.612,30.138,17.864,43.995,28.64c13.195,10.262,25.517,21.572,38.36,32.26
		c13.413,11.161,27.332,21.575,42.835,29.72c10.134,5.325,20.529,9.912,31.859,12.132c2.459,0.482,4.908,0.888,7.787,0.755
		c-1.653,3.977-1.769,7.902-3.423,11.513c-2.136-0.197-4.237-0.031-6.091-0.628c-5.542-1.785-11.211-3.079-16.601-5.479
		c-17.613-7.845-33.966-17.65-48.805-29.977c-5.166-4.292-9.679-9.249-14.521-13.87c-0.708-0.676-1.368-2.244-2.91-1.556
		c-0.153,1.112,0.624,1.462,1.084,1.936c4.967,5.106,9.783,10.374,15.247,14.968c14.343,12.061,30.217,21.74,47.244,29.443
		c7.882,3.565,16.055,6.622,25.023,7.358c-0.081,2.368-0.012,4.745-1.372,6.826c-13.881-2.937-27.414-6.201-39.534-13.558
		c11.761,8.885,25.683,12.291,39.901,14.996c0.003,3.044,0.005,5.588,0.007,8.299c-6.943,0.258-13.361-1.207-19.775-3.457
		c-10.143-3.559-19.432-8.667-28.148-14.794c-15.496-10.894-28.878-24.158-41.589-38.111
		c-13.014-14.287-24.788-29.611-37.026-44.548c-8.067-9.847-16.867-18.964-27.211-26.497
		C785.46,331.984,781.313,329.609,777.256,327.091 M192.613,623.141c8.383,3.758,17.361,4.711,26.295,5.497
		c9.959,0.876,19.951,0.196,29.929-0.331c10.669-0.564,21.287-2.069,32.035-1.356c3.946,0.261,7.172,1.447,10.078,3.986
		c9.794,8.558,19.634,17.062,29.425,25.622c3.465,3.028,6.842,6.156,10.149,9.141c-0.514,0.937-1.064,0.999-1.626,1.165
		c-6.45,1.907-13.074,2.696-19.757,2.954c-8.248,0.318-16.487,0.045-24.74-0.354c-6.846-0.331-13.621-1.298-20.454-1.664
		c-1.85-0.098-3.661-0.567-5.403-1.304c-13.065-5.532-25.618-12.038-37.549-19.716C210.618,640.102,201.066,632.405,192.613,623.141
		 M359.579,392.662c11.336-69.854,3.835-137.075-19.36-202.92c2.525-1.034,4.847-1.984,7.237-2.962
		c2.066,3.645,3.049,7.245,4.342,10.71c1.247,3.34,2.394,6.72,3.477,10.117c1.125,3.527,2.134,7.092,3.169,10.647
		c0.999,3.431,1.915,6.886,2.96,10.302c1.047,3.427,1.504,7.079,3.834,10.058c-4.121-17.848-8.836-35.506-16.122-52.54
		c2.241-1.013,4.252-2.374,6.796-2.749c1.587,2.145,2.872,4.319,3.979,6.649c4.601,9.691,8.057,19.795,11.128,30.05
		c6.711,22.411,10.047,45.361,10.831,68.692c0.251,7.482,0.323,15.005-0.174,22.466c-0.406,6.089-0.855,12.196-1.55,18.284
		c-0.924,8.1-2.194,16.138-3.377,24.192c-1.147,7.802-3.576,15.326-5.346,22.993c-1.737,7.528-4.151,14.846-6.373,22.225
		c-0.288,0.953-1.062,1.759-1.823,2.97C361.762,398.187,360.505,395.006,359.579,392.662 M283.832,624.946
		c-4.071-0.103-7.607-0.327-11.164-0.217c-6.38,0.197-12.803,0.944-19.101-0.879c-0.533-0.154-1.139-0.04-1.709-0.087
		c-6.26-0.511-12.586-0.622-18.766-1.629c-13.692-2.231-27.336-4.804-40.121-10.564c-4.169-1.879-8.712-3.43-11.913-6.604
		c-3.087-3.061-6.745-5.155-10.31-8.203c-7.783-11.371-13.494-21.235-14.365-24.88c2.552-0.165,4.602,1.417,6.932,1.989
		c10.3,2.528,20.719,4.289,31.364,4.187c7.395-0.07,14.802-0.111,22.177-0.58c3.392-0.216,6.04,0.685,8.744,2.54
		c16.272,11.165,31.875,23.206,47.143,35.69C276.361,618.667,279.925,621.689,283.832,624.946 M151.671,259.777
		c5.801,6.87,10.281,14.706,15.678,21.864c5.429,7.2,10.947,14.329,17.298,20.736c6.232,6.287,12.248,12.848,19.776,17.724
		c-4.421-4.958-9.212-9.529-13.931-14.172c-4.792-4.714-9.369-9.635-13.602-14.862c-4.234-5.23-8.341-10.559-12.171-16.097
		c-3.801-5.496-7.61-10.988-11.495-16.598c3.316-2.586,6.329-4.937,9.407-7.338c1.96,3.202,3.757,6.293,5.701,9.288
		c7.647,11.783,15.984,23.061,24.727,34.058c10.341,13.006,21.327,25.411,33.443,36.786c16.782,15.756,34.765,30.113,52.476,44.786
		c8.688,7.198,17.519,14.226,25.821,21.881c3.693,3.406,7.083,7.075,9.954,11.197c0.946,1.358,2.127,2.695,1.98,4.686
		c-2.161,0.895-4.187,0.976-6.306,0.031c-2.418-4.641-5.965-8.328-9.82-11.772c-9.789-8.748-20.246-16.655-30.952-24.213
		c-16.973-11.982-34.736-22.776-52.051-34.245c-15.968-10.578-31.196-22.049-44.509-35.92
		c-10.103-10.526-19.497-21.671-28.857-32.844c-1.705-2.035-3.338-4.216-4.288-6.741
		C144.011,265.46,147.292,262.207,151.671,259.777 M778.93,275.934c-0.083-0.222-0.217-0.415-0.171-0.482
		c7.037-10.094,11.276-21.695,17.398-32.309c5.541-9.606,10.776-19.396,16.626-28.833c17.832-28.764,40.377-53.247,67.426-73.515
		c24.472-18.338,51.275-32.4,80.196-42.385c1.442-0.498,2.839-1.277,4.829-1.161c-0.014,3.543-0.028,7.044-0.04,10.459
		c-19.669,6.276-33.867,12.25-37.165,15.903c12.155-4.919,23.907-10.958,36.527-13.868c1.002,0.826,1.003,1.559,1.051,2.266
		c0.152,2.257,0.291,4.514,0.422,6.558c-0.503,0.406-0.696,0.675-0.946,0.748c-21.676,6.277-42.096,15.461-61.871,26.264
		c-18.221,9.955-34.6,22.318-49.614,36.571c-18.196,17.274-33.508,36.937-47.623,57.588c-7.405,10.835-14.614,21.812-23.045,31.905
		C781.683,273.136,780.592,274.783,778.93,275.934 M373.733,410.088c24.041-31.04,38.874-65.84,42.489-105.1
		c3.598-39.059-3.445-76.229-20.521-111.818c2.385-0.953,4.626-2.043,7.178-2.47c3.924,8.95,7.047,17.982,9.634,27.203
		c2.585,9.209,4.592,18.549,6.371,27.946c1.748,9.233,2.748,18.586,4.595,27.807c-0.487-14.389-2.905-28.495-6.021-42.511
		c-3.154-14.186-7.56-27.979-13.361-41.598c3.51-0.931,5.941-3.168,9.225-3.586c0.503,1.013,1.028,1.87,1.372,2.795
		c3.469,9.355,7.124,18.643,10.078,28.182c6.341,20.472,8.765,41.443,8.143,62.82c-0.2,6.84-0.544,13.653-1.288,20.467
		c-0.745,6.819-1.391,13.65-2.587,20.403c-0.998,5.633-2.45,11.157-3.996,16.684c-2.311,8.263-5.32,16.199-8.977,23.915
		c-7.336,15.477-17.61,28.919-29.044,41.535c-2.867,3.164-5.766,6.318-9.261,8.986C376.357,411.389,374.93,411.306,373.733,410.088
		 M107.835,309.414c1.318,0.607,2.009,1.916,2.815,3.049c2.583,3.629,5.635,6.824,8.75,9.988
		c11.956,12.144,25.236,22.677,39.167,32.434c14.606,10.228,29.467,20.047,45.34,28.232c16.925,8.728,34.542,15.715,52.839,21.026
		c11.26,3.269,22.477,6.695,33.646,10.26c4.615,1.472,9.076,3.441,13.565,5.283c2.321,0.952,2.501,1.458,2.2,4.155
		c-0.404-0.028-0.83,0.012-1.216-0.093c-5.794-1.582-11.512-3.394-17.411-4.646c-18.212-3.864-36.622-6.69-54.81-10.698
		c-15.099-3.326-30.059-6.982-44.489-12.635c-12.525-4.906-24.474-10.85-35.237-18.981c-19.448-14.695-34.945-32.919-47.543-53.679
		c-1.983-3.268-3.688-6.723-4.662-10.492c1.266-0.973,2.47-1.657,4.287-1.35c2.851,4.791,5.981,9.591,9.545,14.065
		c3.564,4.476,7.26,8.859,11.091,13.108c3.695,4.098,6.967,8.674,11.818,11.588c-11.229-12.569-22.723-24.888-31.363-39.189
		C106.729,309.831,107.122,309.451,107.835,309.414 M303.258,428.283c-1.33,0.547-2.616,0.281-3.881,0.075
		c-5.532-0.899-11.114-0.946-16.694-1.016c-15.593-0.195-31.19-0.104-46.735-1.761c-22.139-2.36-43.42-7.728-63.364-17.796
		c-31.367-15.836-56.131-38.85-74.27-68.928c-4.502-7.464-8.611-15.166-12.968-22.879c2.178-0.651,3.958-1.072,6.139-1.143
		c5.854,15.032,14.189,28.609,24.773,40.825c10.05,11.6,31.672,30.614,35.814,31.398c-0.026-0.992-0.903-1.334-1.542-1.885
		c-5.617-4.84-11.324-9.578-16.824-14.548c-13.338-12.05-25.312-25.241-33.684-41.344c-2.478-4.767-5.032-9.507-6.646-14.819
		c2.016-0.666,3.713-1.267,5.633-1.339c1.886,4.235,3.496,8.371,5.828,12.145c11.767,19.044,26.094,35.868,43.497,50.007
		c13.107,10.648,27.965,18.075,43.79,23.726c5.518,1.971,11.136,3.598,16.734,5.311c10.301,3.154,20.841,5.309,31.355,7.382
		c17.429,3.436,34.931,6.527,52.326,10.147c4.173,0.868,8.236,2.264,12.343,3.415C304.699,426.673,304.196,427.634,303.258,428.283
		 M335.984,406.789c-0.178-2.569-0.282-4.964-0.517-7.346c-1.361-13.745-4.285-27.2-7.712-40.551
		c-5.443-21.199-13.399-41.49-22.305-61.436c-6.051-13.552-12.168-27.071-17.372-40.988c-6.893-18.438-12.184-37.368-17.671-56.243
		c-0.352-1.21-0.917-2.394-0.61-4.022c1.543-1.676,3.243-3.526,5.345-5.811c3.733,7.402,6.388,14.6,9.039,21.785
		c2.621,7.101,5.122,14.25,7.495,21.438c2.361,7.154,4.498,14.383,6.733,21.578c0.332-0.112,0.664-0.224,0.996-0.336
		c-5.848-22.558-13.763-44.417-23.015-65.826c1.679-2.247,3.271-4.376,5.118-6.848c0.797,1.321,1.424,2.256,1.948,3.247
		c1.271,2.405,2.658,4.767,3.712,7.266c11.417,27.078,21.541,54.631,29.62,82.892c10.874,38.034,18.189,76.768,22.215,116.12
		c0.448,4.391,0.777,8.795,0.37,13.041C338.431,405.76,337.659,406.602,335.984,406.789 M987.469,173.783
		c-0.582,0.279-1.057,0.624-1.582,0.741c-16.601,3.691-32.35,9.605-47.245,17.833c-3.368,1.861-6.783,3.712-10.62,4.568
		c-10.354,2.31-20.508,5.31-30.509,8.84c-13.406,4.733-26.538,10.084-38.342,18.15c-10.646,7.275-21.242,14.636-31.659,22.233
		c-10.765,7.85-21.457,15.836-31.166,24.995c-7.495,7.069-14.736,14.41-22.043,21.677c-1.798,1.788-3.632,3.363-6.333,3.792
		c0.049-1.351,0.948-1.656,1.595-2.146c4.226-3.207,7.962-6.937,11.603-10.775c7.563-7.97,14.558-16.438,21.761-24.724
		c15.634-17.981,33.265-33.782,52.613-47.643c11.068-7.929,23.008-14.472,35.18-20.515c14.403-7.151,29.264-13.283,44.369-18.821
		c14.016-5.139,28.322-9.254,43.023-12.75c0.821,1.533,1.607,3,2.618,4.883c-7.68,2.307-14.997,4.62-22.151,7.388
		c-7.127,2.757-14.454,5.045-21.109,8.99c3.867-0.205,7.159-2.217,10.692-3.426c3.649-1.247,7.212-2.742,10.836-4.061
		c3.755-1.368,7.522-2.71,11.316-3.964c3.638-1.203,7.319-2.28,11.028-3.426C983.454,168.433,985.408,171.038,987.469,173.783
		 M427.159,177.68c1.448,1.063,2.012,2.412,2.645,3.666c6.414,12.673,11.805,25.779,15.605,39.462
		c8.112,29.199,8.685,58.684,2.837,88.365c-2.081,10.559-5.285,20.733-9.503,30.633c-7.673,18.01-19.113,33.487-32.024,47.968
		c-4.628,5.191-9.656,10.015-15.395,14.144c-0.499-1.314,0.587-1.701,1.072-2.268c3.791-4.435,7.392-9.017,10.89-13.683
		c13.095-17.469,21.647-36.964,26.136-58.298c2.534-12.047,3.89-24.228,4.797-36.497c0.587-7.955,0.901-15.905,0.702-23.858
		c-0.525-20.955-4.333-41.311-11.685-60.974c-2.688-7.189-5.363-14.383-8.101-21.728c1.675-0.83,3.307-1.638,5.275-2.613
		c8.643,19.487,15.33,39.364,19.253,60.84c0.5-1.115,0.864-1.522,0.808-1.859c-3.45-20.695-10.563-40.258-18.578-59.181
		C423.838,180.278,425.529,178.955,427.159,177.68 M770.476,299.329c2.24-1.285,4.447-2.582,6.339-4.364
		c5.936-5.593,11.891-11.17,17.94-16.641c4.032-3.646,8.13-7.238,12.385-10.62c18.203-14.468,38.016-26.596,57.447-39.275
		c1.798-1.173,3.665-2.255,5.57-3.243c25.77-13.356,53.012-22.053,81.802-25.913c11.939-1.601,23.977-1.439,35.959-2.261
		c4.108-0.282,8.205-0.947,12.43-0.709c0.931,1.969,0.566,3.824,0.317,5.544c-19.944-1.98-39.225,0.46-58.424,3.83
		c-16.47,2.89-51.74,14.664-55.296,18.322c1.387-0.46,2.63-0.805,3.822-1.279c9.051-3.601,18.244-6.793,27.552-9.662
		c24.269-7.484,49.098-11.118,74.496-10.733c2.665,0.041,5.416-0.08,7.893,0.956c0.81,2.53,0.855,4.927,0.806,7.374
		c-2.261,0.383-4.328-0.407-6.484-0.364c-32.323,0.63-63.494,7.097-93.733,18.311c-24.487,9.081-47.76,20.676-70.219,33.967
		c-16.534,9.786-32.727,20.064-47.901,31.888c-3.382,2.635-6.872,5.129-10.362,7.726c-0.588-0.559-1.136-1.018-1.604-1.547
		C770.937,300.325,770.789,299.901,770.476,299.329 M745.848,587.063c13.531,6.946,25.56,15.606,36.613,25.68
		c7.301,6.655,14.668,13.24,22.982,18.652c0.612,0.398,1.205,0.77,1.363,1.548c-7.808,4.826-24.107,11.504-31.948,13.093
		c-3.097-1.153-5.954-2.735-8.765-4.428c-6.576-3.962-13.135-7.953-19.78-11.797c-16.923-9.788-33.435-20.408-53.092-26.461
		C710.809,596.889,728.093,591.751,745.848,587.063 M965.263,95.293c-11.201,3.737-22.147,7.872-32.801,12.761
		c-10.558,4.844-20.81,10.274-30.706,16.337c-10.021,6.139-19.694,12.803-28.873,20.179c-9.163,7.365-17.812,15.284-26.057,23.648
		c-8.129,8.249-15.478,17.161-22.422,26.431c-6.88,9.185-12.77,19.039-19.357,29.165c-0.289-1.9,0.368-2.715,0.772-3.609
		c4.888-10.826,10.407-21.346,15.55-32.047c16.203-33.707,40.567-60.034,71.788-80.334c12.312-8.005,25.367-14.525,38.849-20.199
		c11.219-4.722,22.223-9.975,33.737-13.984c1.533-0.533,3.023-1.433,5.073-1.054c-1.247,3.878-2.414,7.51-3.538,11.006
		c-29.631,8.858-56.315,22.849-80.834,41.053c4.509-1.996,8.494-4.916,12.67-7.512c4.259-2.647,8.484-5.358,12.828-7.861
		c4.21-2.426,8.504-4.718,12.847-6.896c4.47-2.241,9.003-4.364,13.582-6.372c4.574-2.006,9.199-3.906,13.872-5.665
		c4.611-1.736,9.309-3.236,14.592-5.054C966.077,88.935,966.473,91.968,965.263,95.293 M604.889,203.089
		c-0.033,3.285,0.525,5.912,0.911,8.564c1.21,8.32,3.269,16.472,4.892,24.71c0.578,2.931,0.227,5.655-0.789,8.393
		c-3.78,10.189-7.526,20.39-11.294,30.584c-7.632,20.65-15.26,41.302-22.916,61.944c-1.354,3.649-2.834,7.252-4.255,10.875
		c-0.987-0.438-1.031-0.999-1.008-1.585c0.096-2.415,0.335-4.834,0.273-7.245c-0.456-17.744-1.437-35.479-1.048-53.235
		c0.143-6.541,0.433-13.084,0.777-19.624c0.295-5.607,1.96-10.993,1.979-16.605c0.008-2.327,0.902-4.406,2.14-6.427
		c8.473-13.835,18.537-26.489,28.747-39.04C603.55,204.086,603.924,203.875,604.889,203.089 M318.718,413.033
		c-4.065-7.786-10.038-13.87-16.518-19.583c-13.617-12.005-27.968-23.123-41.787-34.885c-10.665-9.076-21.51-17.94-31.742-27.515
		c-12.455-11.656-23.742-24.359-34.374-37.682c-8.767-10.987-17.052-22.309-24.757-34.06c-2.028-3.095-3.942-6.251-5.443-9.757
		c1.011-1.009,1.843-1.997,2.835-2.784c0.956-0.758,1.538-2.154,3.397-2.005c1.062,1.664,2.212,3.476,3.371,5.283
		c8.437,13.16,17.769,25.672,27.466,37.921c1.194,1.508,2.4,3,4.376,3.651c-11.895-15.979-23.921-31.808-34.426-48.787
		c1.954-1.688,3.133-3.873,5.368-5.249c0.639,0.866,1.191,1.506,1.625,2.219c4.858,7.986,10.646,15.293,16.713,22.357
		c7.099,8.266,13.643,16.913,19.772,25.923c4.265,6.27,9.015,12.229,13.794,18.126c13.906,17.161,29.154,33.118,44.388,49.083
		c12.067,12.645,24.497,24.951,35.778,38.328c4.897,5.807,9.608,11.757,13.16,18.53C320.909,412.74,320.118,412.984,318.718,413.033
		 M813.461,313.535c0.577-0.801,1.52-0.662,2.296-0.789c11.295-1.858,22.618-3.497,34.036-4.449
		c16.724-1.396,33.426-0.99,50.049,1.024c10.377,1.258,20.691,3.095,30.929,5.313c10.651,2.307,21.407,4.085,32.244,5.227
		c9.532,1.004,19.113,1.539,28.654,2.474c11.531,1.129,23.06,1.875,34.645,1.023c1.272-0.093,2.578-0.199,3.675,0.82
		c0.663,3.604,1.238,7.229,1.177,11.364c-16.04,0.828-31.353-3.625-46.961-5.48c15.425,3.43,30.704,7.708,46.789,7.205
		c0.822,3.71-0.166,6.897-1.309,10.089c-9.133-0.578-17.929-1.732-26.644-3.492c-15.034-3.036-30.019-6.305-45.015-9.524
		c-31.936-6.855-63.727-14.596-96.336-17.844c-6.12-0.609-12.249-1.186-18.388-1.549c-9.27-0.55-18.55-1.012-27.847-0.761
		C814.753,314.206,814.021,314.099,813.461,313.535 M1034.246,287.051c-0.364,1.526-1.499,1.956-2.49,2.466
		c-2.418,1.246-4.856,2.46-7.322,3.608c-25.219,11.745-51.905,16.158-79.521,15.661c-9.315-0.168-18.536-1.551-27.693-3.252
		c-9.999-1.857-20.08-2.836-30.232-3.47c-14.295-0.891-28.516-0.452-42.741,1.021c-20.962,2.171-41.496,6.716-62.086,10.968
		c-0.975,0.201-1.955,0.853-3.104,0.21c0.94-1.325,2.175-1.812,3.327-2.328c12.136-5.434,24.652-9.74,37.626-12.708
		c12.085-2.765,24.415-3.395,36.705-4.488c18.069-1.609,36.178-2.527,54.301-2.503c14.464,0.019,28.937-0.069,43.374-0.54
		c24.27-0.793,48.217-3.851,70.252-15.464c1.033,1.352,1.965,2.57,3.066,4.012c-3.034,2.564-6.358,4.244-9.659,5.865
		c-13.185,6.476-27.15,10.514-41.6,12.975c-2.953,0.503-5.883,1.126-8.823,1.699c-0.415,0.081-0.86,0.121-1.225,0.309
		c-0.284,0.146-0.846,0.338-0.108,1.207c10.705-1.944,21.698-3.485,32.304-6.922c10.612-3.438,21.037-7.297,30.234-13.964
		C1030.763,283.551,1032.971,284.946,1034.246,287.051 M690.278,604.451c3.848,1.245,7.373,2.356,10.877,3.53
		c2.022,0.679,4.015,1.427,5.548,3.044c4.127,4.354,8.384,8.592,12.405,13.042c8.425,9.325,16.603,18.885,26.414,26.846
		c0.262,0.211,0.711,0.484,0.075,1.184c-3.032,0.327-6.285,0.835-9.555,1.003c-11.482,0.589-22.931,2.079-34.39-1.051
		c-9.137-2.495-18.019-5.421-26.255-10.124c-8.297-4.737-16.205-10.178-25.284-13.49c-2.011-0.734-3.957-2.005-5.623-3.938
		C659.743,617.289,674.623,610.08,690.278,604.451 M166.405,350.473c-17.887-14.655-35.112-29.963-50.372-47.509
		c1.323-1.292,2.052-2.711,3.605-3.247c0.801,0.878,1.505,1.593,2.147,2.36c17.464,20.903,38.441,37.617,61.804,51.398
		c25.255,14.896,51.497,27.856,78.443,39.418c11.536,4.949,22.965,10.152,33.914,16.34c3.499,1.978,6.782,4.244,9.801,6.894
		c0.932,0.818,1.673,1.672,0.241,2.872c-9.488-4.571-19.546-7.793-29.639-10.805c-11.087-3.308-22.237-6.379-33.176-10.182
		c-9.845-3.423-19.456-7.379-28.929-11.703c-16.52-7.541-31.816-17.184-46.806-27.324c-17.624-11.923-34.558-24.709-49.255-40.238
		c-3.123-3.301-5.851-6.835-8.482-10.847c2.165-1.151,3.383-3.044,5.591-3.759c4.999,6.393,10.733,11.974,16.41,17.608
		c8.73,8.662,18.016,16.701,27.516,24.495C161.362,348.003,163.456,349.956,166.405,350.473 M206.118,227.53
		c1.329,3.528,2.398,6.778,3.755,9.904c11.07,25.513,25.876,48.715,43.456,70.213c10.767,13.167,22.351,25.621,33.378,38.561
		c12.583,14.766,23.731,30.483,32.605,47.754c2.536,4.935,4.823,10.003,6.181,15.432c0.229,0.914,0.524,1.676-1.049,1.941
		c-1.22-2.411-2.064-5.096-3.57-7.488c-3.751-5.96-7.966-11.548-12.528-16.899c-9.111-10.688-19.002-20.651-28.594-30.894
		c-17.818-19.028-35.763-37.944-51.959-58.413c-15.659-19.791-28.21-41.363-37.184-64.977c-0.479-1.262-1.325-2.482-0.883-4.084
		c2.45-0.126,4.726-0.259,7.005-0.347c0.408-0.016,0.823,0.151,1.335,0.253c1.228,1.231,1.492,2.982,2,4.582
		c6.97,21.982,18.969,41.25,32.252,59.824c0.794,1.11,1.551,2.406,3.825,2.376c-15.549-20.73-28.29-42.461-35.686-67.063
		C202.511,227.563,204.221,227.567,206.118,227.53 M1028.31,417.719c-2.717,0.825-5.213,1.331-7.762,1.578
		c-10.549,1.019-21.114,0.31-31.485-1.211c-12.711-1.863-25.358-4.354-37.508-8.958c-8.932-3.384-17.661-7.082-25.882-11.946
		c-0.804-0.476-1.545-1.191-2.758-0.445c1.615,2.024,3.847,3.026,5.946,4.145c15.877,8.47,32.69,14.223,50.438,17.237
		c3.956,0.671,7.876,1.658,11.858,2.058c5.944,0.598,11.924,0.949,17.897,1.139c5.963,0.19,11.939,0.162,17.798-1.346
		c1.214-0.312,2.441-0.932,4.271-0.269c0.868,0.776,2.483,1.424,3.6,2.983c-4.255,1.17-8.521,1.652-12.731,2.424
		c-23.197,4.251-45.809,2.625-68.016-5.731c-14.372-5.407-28.146-11.928-41.401-19.605c-14.156-8.199-27.262-17.905-40.14-27.96
		c-13.312-10.394-26.386-21.127-40.891-29.896c-14.279-8.633-29.067-16.018-45.754-18.792c-0.69-0.115-1.437-0.159-1.94-0.781
		c0.629-0.472,1.339-0.32,1.997-0.179c10.762,2.299,21.635,4.026,31.997,8.072c10.414,4.066,20.353,8.95,29.878,14.78
		c8.667,5.304,16.95,11.183,25.513,16.637c11.219,7.147,22.728,13.809,34.398,20.183c10.669,5.827,21.306,11.746,32.441,16.651
		c15.522,6.839,31.682,11.4,48.536,13.736c9.963,1.38,19.883,1.89,29.881,1.179c2.013-0.143,3.969-0.148,5.866,0.105
		C1025.748,414.706,1027.052,415.811,1028.31,417.719 M777.363,329.119c10.044,5.616,18.342,12.254,25.911,19.824
		c10.036,10.036,18.522,21.392,27.378,32.429c11.912,14.845,24.2,29.347,37.931,42.573c10.802,10.403,22.147,20.107,35.197,27.633
		c10.051,5.796,20.538,10.425,32.141,12.238c2.394,0.373,4.873-0.386,7.367,0.714c0.804,2.927,1.618,5.892,2.545,9.269
		c-1.835-0.235-3.432-0.218-4.887-0.664c-6.302-1.935-12.808-3.012-19.131-4.937c-13.516-4.117-26.307-9.705-38.315-17.113
		c-15.461-9.537-29.126-21.248-41.744-34.267c-10.695-11.035-21.025-22.312-28.472-35.93c-4.054-7.415-8.319-14.72-12.652-21.977
		c-5.6-9.379-11.944-18.198-20.186-25.502C779.277,332.373,777.987,331.413,777.363,329.119 M331.913,412.85
		c1.652,1.974,2.243,4.09,3.333,5.929c1.118,1.885,1.402,4.313,4.147,6.021c0.25-2.825-1.313-4.626-1.956-6.61
		c-0.688-2.125-2.033-4.035-2.367-6.538c4.199-1.191,7.288-3.953,10.695-6.569c0.81,3.475,1.554,6.417,1.287,9.415
		c-0.345,3.872,0.433,7.658,0.561,11.489c0.029,0.879,0.172,2.061,1.944,2.301c0.914-8.838-0.594-17.541-0.976-26.657
		c2.89-2.358,3.523-6.676,6.824-9.805c2.562,6.43,3.848,12.832,7.391,17.838c0.174,2.863-0.075,5.269-0.543,7.673
		c-1.014,5.2-1.954,10.414-2.931,15.621c-0.137,0.727-0.21,1.417,0.629,1.938c1.62,0.209,1.786-1.107,1.829-2.175
		c0.237-5.93,2.398-11.455,3.518-17.197c0.209-1.072,0.006-2.344,1.113-3.094c5.025,0.725,9.314,4.114,14.838,3.366
		c-0.971,2.591-2.338,4.284-3.665,5.93c-5.545,6.877-8.582,14.86-10.114,23.396c-1.629,9.07-5.038,17.576-7.567,26.282
		c-0.957,0.572-1.812,1.047-2.946,0.647c-8.138-8.158-16.233-16.459-24.541-24.543c-6.657-6.478-13.399-12.921-22.225-16.537
		c-0.742-0.304-1.665-0.538-2.111-1.542c0.108-2.037,1.827-3.394,2.631-5.198c0.953-2.136-1.366-4.151,0.046-6.377
		c1.635-0.271,3.272-0.029,4.884,0.658c4.517,5.798,8.372,12.01,12.407,18.096c2.162,3.262,4.9,5.942,7.958,8.327
		c0.662,0.516,1.388,1.129,2.457-0.397c-8.179-7.575-10.964-19.037-19.606-27.007C323.5,415.866,327.615,414.391,331.913,412.85
		 M733.175,805.98c-1.74,0.444-2.852,0.048-3.933-0.257c-9.67-2.727-18.904-6.494-27.598-11.572
		c-1.741-1.017-2.643-2.586-3.524-4.202c-2.46-4.517-4.648-9.166-6.723-13.875c-4.852-11.01-7.7-22.629-10.594-34.238
		c-0.892-3.58-1.578-7.25-3.162-10.581c-2.101-4.418-2.061-9.251-4.001-14.567c1.526,0.735,2.175,0.969,2.74,1.331
		c10.461,6.71,20.91,13.439,31.368,20.155c1.863,1.196,3.211,2.862,4.224,4.767c1.473,2.774,3.072,5.525,4.15,8.458
		c3.3,8.973,6.648,17.933,9.09,27.203C727.605,787.683,729.002,797.044,733.175,805.98 M759.64,285.584
		c3.603-4.423,6.814-8.906,9.409-13.839c5.559-10.565,9.866-21.667,14.053-32.8c3.249-8.641,5.998-17.474,8.802-26.275
		c2.758-8.662,6.093-17.092,9.443-25.535c7.588-19.125,18.581-36.062,32.106-51.464c12.765-14.537,27.768-26.338,44.188-36.431
		c1.694-1.042,3.511-1.773,5.517-2.322c1.523,2.023,2.954,3.925,4.513,5.996c-7.174,5.217-14.046,10.352-20.706,15.771
		c-20.835,16.952-37.698,37.021-49.455,61.335c-11.011,22.769-20.506,46.18-30.212,69.506c-4.886,11.743-10.22,23.199-18.584,32.996
		c-1.892,2.217-3.959,4.02-6.316,5.279C761.075,287.527,760.336,286.912,759.64,285.584 M342.79,401.883
		c-1.465-34.952-6.887-68.915-14.48-102.555c-7.646-33.873-18.476-66.757-31.402-99.297c2.673-0.659,5.158-0.932,7.679-0.97
		c2.378,4.756,3.987,9.63,5.496,14.531c1.972,6.4,3.788,12.847,5.746,19.251c0.36,1.177,0.238,2.797,2.417,3.304
		c-1.345-6.67-3.656-12.789-5.325-19.074c-1.67-6.29-3.898-12.397-6.474-18.509c1.377-0.176,2.507-0.343,3.642-0.448
		c0.257-0.024,0.534,0.162,0.835,0.263c0.981,0.913,1.138,2.26,1.61,3.431c12.537,31.163,21.319,63.4,27.149,96.436
		c5.683,32.199,9.996,64.545,8.567,97.315C346.839,397.872,345.108,399.749,342.79,401.883 M707.867,550.101
		c2.464-1.117,4.647-2.201,6.9-3.111c11.036-4.464,22.202-8.527,34.01-10.498c0.909-0.152,1.944-0.776,2.774,0.532
		c-0.708,1.469-1.447,2.999-2.184,4.532c-6.508,13.545-14.752,26.085-22.513,38.906c-2.128,3.517-4.499,6.925-5.509,11.073
		c-4.512,1.463-8.996,2.889-13.459,4.378c-4.332,1.445-8.568,3.249-12.981,4.357c-4.539,1.14-8.551,3.448-12.891,5.003
		c-4.407,1.579-8.696,3.487-13.089,5.272c-0.491-1.376,0.104-2.147,0.665-3.006c2.665-4.071,5.574-7.953,8.663-11.713
		c3.908-4.758,7.829-9.514,11.529-14.433C697.014,571.777,703.453,561.674,707.867,550.101 M748.819,586.176
		c9.415-2.506,18.34-4.929,27.294-7.246c4.943-1.279,9.846-0.857,14.651,0.82c1.213,0.424,2.462,0.763,3.633,1.279
		c2.857,1.256,6.219,1.485,8.611,3.625c3.505,3.134,6.836,6.468,10.138,9.819c6.996,7.1,13.296,14.817,20.134,22.438
		c-7.662,5.57-15.445,10.292-23.518,14.656c-5.872-3.278-10.992-7.371-16.121-11.33c-6.998-5.404-13.327-11.665-20.165-17.288
		C765.906,596.722,757.815,591.206,748.819,586.176 M786.916,576.662c1.236-1.058,2.73-1.105,4.063-1.382
		c22.661-4.718,45.456-8.734,68.213-12.953c2.087-0.388,3.847-0.002,5.792,0.73c6.503,2.447,12.543,5.988,19.212,8.032
		c0.645,0.199,1.286,0.621,1.461,1.672c-11.117,10.087-21.762,20.898-33.789,30.237c-3.692-1.616-7.328-2.798-10.852-4.34
		C823.201,590.868,805.814,582.021,786.916,576.662 M948.311,430.122c-4.553-0.775-8.894-0.515-13.041-1.735
		c-9.318-2.742-18.183-6.532-26.765-11.106c-15.062-8.03-28.683-18.086-41.723-28.993c-12.48-10.439-24.72-21.176-37.398-31.368
		c-15.558-12.506-31.95-23.817-50.201-32.26c7.184,1.945,14.508,3.344,21.408,6.181c15.184,6.243,29.25,14.501,42.432,24.213
		c13.381,9.858,26.5,20.069,39.793,30.047c18.989,14.254,39.387,26.052,61.401,35.029c2.202,0.898,4.79,1.115,6.504,3.203
		C950.595,425.673,949.111,427.537,948.311,430.122 M713.959,741.852c13.337,8.104,26.742,14.098,40.331,20.058
		c1.887,3.489,3.854,6.968,5.666,10.526c1.997,3.918,4.144,7.778,4.222,12.396c0.073,4.291,1.069,8.468,2.138,12.604
		c0.919,3.558,1.996,7.073,3.114,10.999c-11.592,1.207-22.87,1.098-33.847-1.475c-2.553-5.801-4.412-11.327-5.652-17.053
		C726.394,773.569,721.06,757.83,713.959,741.852 M553.347,402.298c4.396-11.429,8.423-22.095,12.597-32.703
		c5.695-14.476,11.559-28.89,16.508-43.642c1.497-4.461,3.923-7.842,8.169-9.881c0.387-0.185,0.741-0.436,1.118-0.641
		c4.41-2.413,8.561-5.206,12.439-8.408c2.416-1.992,4.865-3.942,7.497-6.07c-0.054,0.74-0.016,1.18-0.126,1.579
		c-2.141,7.726-4.243,15.463-6.474,23.162c-1.552,5.356-3.118,10.719-4.979,15.972c-2.81,7.93-5.917,15.753-8.824,23.649
		c-1.101,2.988-2.552,5.666-4.914,7.887c-2.18,2.05-4.139,4.334-6.203,6.508C572.241,388.052,563.01,394.821,553.347,402.298
		 M731.074,588.247c3.54-5.974,7.896-11.067,12.529-15.902c8.801-9.182,17.717-18.255,26.614-27.345
		c3.395-3.466,6.089-7.497,9.021-11.33c8.85,0.067,17.467,0.635,26.616,1.695c-5.132,6.47-8.637,13.237-11.938,20.124
		c-3.516,7.336-7.925,14.068-13.423,19.928C763.91,579.561,747.574,584.021,731.074,588.247 M771.535,329.025
		c-3.186,1.669-5.95,1.557-8.849,1.066c-8.331-1.41-16.713-2.178-25.184-1.596c-7.697,0.529-15.29,1.757-22.688,3.242
		c-2.458-0.885-3.006-2.633-2.887-4.897c3.387-2.688,6.541-5.542,9.152-8.992c6.912-9.129,13.376-18.538,18.748-28.671
		c1.07-2.016,2.295-3.95,3.475-5.906c1.046-1.735,2.41-3.1,4.399-3.726c1.78,1.726,3.468,3.366,5.435,5.275
		c-4.964,2.072-7.345,6.056-9.327,10.448c-1.64,3.632-3.406,7.217-5.629,10.548c-0.712,1.067-1.52,2.095-1.13,3.529
		c1.48,0.063,1.873-1.192,2.444-2.085c2.692-4.206,5.696-8.204,8.125-12.589c1.875-3.385,4.299-6.339,8.006-7.855
		c1.699,1.558,3.272,3.001,4.878,4.474c-0.038,3.081,0.781,5.883,2.647,8.279c-2.84,2.482-6.076,4.116-8.345,7.076
		c0.574,0.365,0.957,0.816,1.252,0.765c3.983-0.699,6.176-4.404,9.621-6.005c1.813,0.928,3.261,2.028,4.68,3.785
		c-0.037,2.61,1.668,5.033,2.431,7.872c-4.741,1.226-9.222,2.502-14.037,2.244c-1.668-0.089-3.764-0.107-4.956,1.805
		c3.484,1.401,8.159,1.133,20.146-1.16C773.527,320.428,770.528,324.317,771.535,329.025 M866.947,67.188
		c-0.359,0.457-0.487,0.788-0.712,0.882c-7.876,3.267-14.617,8.288-21.351,13.408c-12.66,9.624-23.179,21.193-31.727,34.515
		c-14.212,22.146-24.13,46.242-31.949,71.284c-1.064,3.407-1.849,6.9-3.036,10.244c-2.205,6.214-3.747,12.619-5.228,18.991
		c-2.14,9.199-5.18,18.187-6.572,27.561c-0.062,0.422-0.197,0.838-0.338,1.242c-2.487,7.128-3.986,14.569-6.83,21.581
		c-1.49,3.674-2.847,7.41-4.963,10.798c-0.203,0.324-0.398,0.416-1.403-0.286c0.339,0.26-0.018,0.025-0.329-0.263
		c-0.422-0.39-0.807-0.819-0.793-1.579c4.108-5.715,5.805-12.574,7.695-19.253c2.298-8.119,3.966-16.422,5.751-24.678
		c2.121-9.803,3.855-19.693,6.172-29.447c2.017-8.486,4.392-16.904,7.005-25.227c3.43-10.923,7.625-21.578,12.292-32.039
		c10.788-24.186,23.906-46.906,41.715-66.717c8.571-9.535,17.952-18.089,28.907-24.827c0.893-0.549,1.736-1.369,3.043-1.213
		c0.195,1.861,0.606,3.53,0.32,5.544c-4.89,3.426-9.976,6.879-14.946,10.494c-7.89,5.737-14.876,12.465-21.144,19.93
		c-0.416,0.494-1.556,1.101-0.077,2.422c10.427-12.369,22.923-22.3,36.709-31.032C865.83,62.404,866.409,64.887,866.947,67.188
		 M313.79,647.831c-15.413-13.316-30.002-26.075-44.608-37.931c-1.525-6.048-1.783-11.73-2.211-17.389
		c-0.431-5.686-0.74-11.382-1.126-17.439c0.91,0.502,1.298,0.676,1.643,0.912c13.132,9.002,25.025,19.433,36.144,30.82
		c3.857,3.95,6.621,8.11,6.843,13.735c0.044,1.125,0.397,2.24,0.612,3.358C312.529,631.419,313.468,638.997,313.79,647.831
		 M393.927,193.668c11.746,21.446,17.386,44.595,20.282,68.48c3.947,32.558,0.079,64.297-11.791,94.875
		c-7.277,18.747-16.947,36.24-29.874,52.03c-0.587-1.024-0.142-1.437,0.156-1.911c2.962-4.727,5.971-9.425,8.858-14.197
		c7.589-12.547,13.395-25.916,17.172-40.052c4.114-15.398,6.326-31.126,7.177-47.079c1.072-20.098,0.107-40.06-2.882-59.941
		c-2.497-16.611-6.422-32.88-11.85-48.782c-0.277-0.81-0.632-1.6-0.351-2.652C391.69,194.224,392.628,193.991,393.927,193.668
		 M557.116,278.563c0.907,2.583,0.776,4.907,0.771,7.139c-0.039,15.807,1.297,31.526,2.808,47.237
		c1.074,11.174,2.145,22.308,1.738,33.603c-0.289,8.046-4.167,14.547-6.757,22.504c-1.198-3.27-2.04-5.684-2.962-8.067
		c-4.944-12.767-9.034-25.779-11.827-39.205c-0.982-4.719-1.341-9.227,0.511-13.804c0.69-1.704,0.814-3.628,1.325-5.415
		c2.003-7.004,3.872-14.055,6.143-20.972C551.353,294.01,554.229,286.565,557.116,278.563 M182.432,535.454
		c4.463,1.138,8.179,2.884,12.013,4.32c12.251,4.588,24.184,9.913,36.121,15.238c2.065,0.922,3.506,2.325,4.457,4.368
		c1.747,3.755,3.415,7.527,4.478,11.551c1.488,5.628,3.066,11.233,4.595,16.85c0.201,0.736,0.939,1.505-0.305,2.424
		c-17.976-13.136-36.737-25.256-55.552-37.004C187.145,547.013,185.438,541.218,182.432,535.454 M126.075,519.222
		c9.226,3.721,75.77,44.222,79.105,47.951c-19.324-0.141-38.036-5.003-56.822-8.764
		C140.906,545.426,134.474,532.134,126.075,519.222 M539.695,433.306c-4.255-10.603-6.782-21.493-8.211-32.649
		c-0.306-2.39-0.525-4.766-0.434-7.202c0.292-7.883,1.492-15.664,2.569-23.449c1.308-9.451,2.975-18.852,4.487-28.275
		c2.657,8.348,4.258,16.874,7.2,25.023c3.001,8.311,6.063,16.602,9.246,25.306C549.155,405.432,544.242,419.262,539.695,433.306
		 M823.616,795.698c-7.146,3.754-32.801,10.432-39.556,10.472c-1.278-0.561-2.254-1.611-3.238-2.631
		c-4.417-4.573-7.612-10.01-10.632-15.522c-2.871-5.242-5.415-10.662-8.111-16c-1.325-2.626-2.668-5.244-4.297-8.445
		c9.24,3.596,17.847,6.943,26.447,10.307c0.387,0.152,0.819,0.383,1.051,0.705c1.454,2.031,3.683,3.112,5.609,4.527
		C800.679,786.304,810.542,793.402,823.616,795.698 M673.304,769.361c-7.46-10.144-13.475-20.328-17.069-31.76
		c-3.483-11.074-7.805-21.801-12.57-32.368c-0.362-0.802-1.173-1.554-0.702-2.941c10.103,3.693,19.713,7.894,28.655,13.033
		c1.655,5.918,2.891,11.46,3.366,17.184c0.827,9.999-0.148,19.932-0.963,29.863C673.85,764.462,674.369,766.654,673.304,769.361
		 M841.05,540.079c0.068,0.994-0.54,1.24-0.951,1.578c-4.642,3.822-9.35,7.565-13.943,11.443c-5.453,4.602-11.42,8.65-15.712,14.52
		c-0.962,1.316-2.355,1.908-4.013,2.179c-3.51,0.574-6.979,1.395-10.475,2.055c-3.411,0.644-6.725,1.865-10.242,2.079
		c-0.034-0.47-0.104-0.649-0.045-0.724c5.897-7.356,10.091-15.711,14.149-24.141c2.351-4.886,5.297-9.352,8.951-13.416
		C819.7,536.749,830.375,538.621,841.05,540.079 M917.195,545.48c-29.621,9.963-60.413,14.964-91.225,20.231
		c9.159-8.929,19.382-16.397,29.117-23.928C875.982,543.789,896.386,546.466,917.195,545.48 M417.753,430.632
		c4.894,7.74,9.884,15.386,16.011,22.219c11.058,12.328,22.161,24.615,33.195,36.964c1.708,1.911,3.807,3.557,5.113,6.278
		c-5.65-1.965-10.901-3.72-16.102-5.614c-7.769-2.83-14.791-6.667-19.106-14.214c-1.487-2.601-3.32-5.007-5.008-7.492
		c-4.685-6.896-8.504-14.228-11.007-22.198C419.232,441.428,417.972,436.195,417.753,430.632 M531.354,476.06
		c1.73-6.931,3.386-13.883,5.212-20.79c1.68-6.356,3.532-12.667,5.328-18.991c1.055-3.713,2.11-7.425,3.24-11.114
		c0.507-1.657,1.47-3.107,2.694-4.328c1.924-1.918,3.828-3.871,5.9-5.621c7.328-6.188,14.605-12.428,21.334-19.279
		c0.626-0.637,1.339-1.188,2.386-2.108c-0.234,0.951-0.262,1.385-0.44,1.744c-6.325,12.672-13.159,25.066-20.448,37.206
		C547.978,447.072,538.563,460.883,531.354,476.06 M656.688,616.147c-9.283,4.543-18.407,9.009-28.016,13.71
		c0.287-1.082,0.264-1.602,0.511-1.84c5.933-5.713,9.947-12.859,14.674-19.478c9.254-12.959,19.982-24.649,31.321-35.787
		c3.438-3.378,7.052-6.585,11.655-9.858c-1.199,3.233-2.513,5.514-4.013,7.718c-5.292,7.775-10.549,15.573-15.829,23.355
		C662.34,600.821,657.847,607.747,656.688,616.147 M569.596,252.374c-1.205,9.711-1.795,19.364-1.925,29.059
		c-0.146,10.935-0.368,21.868,0.167,32.799c0.645,13.188,0.725,26.39,0.904,39.588c0.013,0.977-0.151,2.019-0.501,2.927
		c-1.195,3.088-2.51,6.13-4.003,9.73c-0.027-5.053,0.028-9.464-0.092-13.871c-0.229-8.43-1.561-16.766-2.279-25.154
		c-1.276-14.924-2.135-29.872-2.319-44.853c-0.05-4.001-0.383-8.191,0.886-11.913C562.637,264.229,565.822,258.135,569.596,252.374
		 M620.82,259.387c-2.185,12.27-4.407,24.503-7.724,36.501c-0.319,1.154-0.939,2.05-1.819,2.833
		c-7.604,6.749-15.985,12.392-24.775,17.636c-0.031-0.478-0.142-0.792-0.053-1.034c2.548-6.957,5.095-13.916,7.693-20.855
		c1.257-3.357,2.951-6.436,5.357-9.179C606.844,276.915,614.194,268.538,620.82,259.387 M723.587,590.539
		c10.305-18.958,23.064-35.75,30.996-55.034c7.303-1.03,14.174-1.847,21.48-1.625c-1.459,3.17-3.429,5.426-5.469,7.566
		c-5.818,6.101-11.764,12.081-17.624,18.142c-8.931,9.237-18.202,18.186-25.181,29.106
		C726.998,589.933,725.957,590.387,723.587,590.539 M771.798,647.085c-6.852,2.05-13.463,3.19-20.09,4.236
		c-1.492,0.235-2.729-0.343-3.869-1.406c-2.189-2.04-4.546-3.898-6.765-5.907c-7.334-6.636-13.611-14.269-20.242-21.569
		c-2.424-2.668-4.904-5.284-7.359-7.924C733.651,623.945,752.189,635.989,771.798,647.085 M488.098,511.57
		c-3.303-4.02-5.915-7.401-8.738-10.596c-8.424-9.537-16.803-19.119-25.472-28.429c-3.059-3.284-5-6.838-5.751-11.155
		c-0.317-1.823-0.576-3.655-0.885-5.479c-0.159-0.946-0.608-1.928,0.481-2.632c0.155,0.074,0.302,0.114,0.409,0.202
		c15.739,12.965,28.414,28.58,39.48,45.59c0.892,1.371,1.308,2.904,1.248,4.465C488.778,505.93,488.427,508.313,488.098,511.57
		 M332.841,667.858c3.204,3.169,6.591,5.882,9.361,9.601c-10.233,2.028-19.907,3.75-29.632,5.194
		c-2.734,0.406-5.365,0.449-8.03-0.466c-3.109-1.067-6.303-1.88-9.433-2.889c-7.537-2.427-15.059-4.906-22.587-7.364
		c1.64-0.487,3.213-0.639,4.746-0.459c6.4,0.748,12.831,0.984,19.256,1.029C308.691,672.588,320.845,672.317,332.841,667.858
		 M704.282,552.022c0.439,0.938-0.02,1.511-0.318,2.16c-3.813,8.33-8.617,16.07-14.183,23.319
		c-5.56,7.24-11.345,14.304-16.96,21.501c-3.153,4.041-6.208,8.165-7.564,13.302c-2.059,0.928-4.032,1.817-6.48,2.919
		c0.359-1.796,0.379-3.001,0.841-4c1.485-3.207,2.853-6.521,4.773-9.465c5.357-8.211,11.02-16.221,16.462-24.38
		c2.828-4.24,5.658-8.477,7.643-13.242c0.619-1.481,1.063-3.253,2.62-4.31C695.342,556.952,699.631,554.199,704.282,552.022
		 M324.379,632.642c8.927,11.457,30.479,49.304,32.916,57.855c-10.54-12.201-21.596-23.113-32.867-33.198
		C323.221,648.993,324.736,641.21,324.379,632.642 M607.063,260.529c9.85-25.518,16.432-51.929,22.867-78.4
		c0.163,1.484-0.028,2.893-0.109,4.308c-0.99,17.439-2.217,34.849-4.954,52.13c-0.444,2.808-1.398,5.225-2.949,7.405
		C617.871,251.66,612.765,256.325,607.063,260.529 M217.983,574.897c-1.483,0.289-2.183,0.571-2.866,0.534
		c-3.986-0.216-7.962,0.074-11.943,0.133c-7.404,0.108-14.874,0.323-22.167-0.817c-7.864-1.232-15.746-2.559-23.362-5.248
		c-4.343-1.533-6.22-4.382-7.573-8.711c19.837,3.808,39.096,8.917,59.198,8.366C211.972,570.935,214.7,572.733,217.983,574.897
		 M448.569,490.372c1.069-0.553,1.628-0.321,2.137-0.107c5.663,2.374,11.478,4.315,17.292,6.28
		c4.761,1.609,8.935,3.978,12.137,8.266c4.106,5.5,8.487,10.81,12.384,16.468c2.123,3.083,3.902,6.403,5.836,9.616
		C481.145,518.121,463.473,506.179,448.569,490.372 M260.804,602.854c-2.091-0.823-3.201-2.439-4.792-3.297
		c-6.705-3.615-9.686-9.561-11.318-16.716c-1.776-7.79-3.657-15.596-7.083-22.9c-0.081-0.173,0.111-0.474,0.176-0.716
		c3.631,0.988,11.495,5.194,14.646,7.868C255.581,578.747,258.106,590.674,260.804,602.854 M630.892,163.631
		c0.286,0.113,0.573,0.226,0.859,0.339c-5.252,19.817-9.194,39.961-15.121,59.746c-1.269-1.261-1.204-2.768-1.407-4.139
		c-1.249-8.468-1.177-17.028-1.767-25.543c-0.14-2.021,0.472-3.564,1.525-5.163c3.057-4.638,6.053-9.316,9.016-14.015
		C626.339,171.142,628.597,167.375,630.892,163.631 M835.117,615.779c-4.333-5.099-8.315-9.748-12.256-14.432
		c-3.931-4.671-8.53-8.73-12.186-13.85c12.913,5.652,25.825,11.305,39.239,17.176C844.79,608.519,840.133,612.014,835.117,615.779
		 M314.394,684.432c9.941-1.761,19.882-3.521,29.827-5.283c5.348,5.569,10.55,10.832,15.148,17.093
		C344.164,692.28,329.004,689.916,314.394,684.432 M675.593,772.284c0.056-11.465,1.964-22.961,1.99-34.621
		c4.157,18.003,9.017,35.696,17.721,52.141C687.868,785.126,681.411,779.566,675.593,772.284 M246.218,625.993
		c-9.624,0.717-19.208,1.166-28.857,0.252c-8.004-0.757-15.811-2.081-23.334-4.907c-6.354-2.386-12.621-8.436-16.163-15.612
		c3.43,1.941,6.572,3.843,9.824,5.536c7.491,3.901,15.451,6.707,23.559,8.877c7.015,1.877,14.169,3.293,21.463,4.023
		C237.206,624.612,241.826,624.43,246.218,625.993 M155.434,526.028c1.234,0.186,1.819,0.188,2.344,0.367
		c6.434,2.187,12.867,4.375,19.276,6.635c0.913,0.322,1.783,0.931,2.274,1.858c2.684,5.063,4.945,10.274,5.948,16.443
		c-7.722-4.655-14.995-9.048-22.282-13.419c-1.017-0.609-1.876-1.389-2.291-2.461C159.463,532.253,157.483,529.465,155.434,526.028
		 M530.277,408.435c1.601,7.06,3.188,14.083,5.556,20.91c0.787,2.271,1.242,4.655,1.898,6.974c0.436,1.542,0.61,3.142,0.223,4.647
		c-2.304,8.976-4.707,17.927-7.077,26.886C529.547,448.052,529.66,428.257,530.277,408.435 M840.668,790.152
		c-4.695,2.098-8.651,3.175-12.551,4.39c-1.115,0.348-2.254-0.138-3.382-0.324c-4.826-0.793-9.286-2.645-13.727-4.578
		c-5.312-2.312-15.006-8.735-18.656-12.494C807.968,782.943,823.538,787.58,840.668,790.152 M586.262,376.613
		c-2.301,5.493-4.442,9.991-8.052,13.574c-6.911,6.862-13.86,13.686-21.339,19.942c-2.679,2.242-5.331,4.515-8.663,7.34
		c1.411-6.094,2.822-10.879,7.633-14.29c5.711-4.05,11.535-8.03,16.627-12.889C576.907,386.054,581.191,381.655,586.262,376.613
		 M312.208,616.926c2.671,2.384,4.528,5.407,6.813,8.057c2.457,2.848,3.525,6.082,3.361,9.823c-0.23,5.248-0.301,10.504-0.555,15.75
		c-0.063,1.302,0.943,2.746-0.268,3.912c-3.878-2.129-5.973-5.228-5.866-9.68c0.023-0.974-0.309-1.953-0.412-2.935
		c-0.847-8.08-1.675-16.161-3.652-24.071C311.586,617.608,311.918,617.34,312.208,616.926 M851.613,541.657
		c-10.375,8.468-21.221,15.447-29.956,25.241c-2.373,0.413-4.927,0.857-7.644,1.331c0.585-2.495,2.015-3.827,3.571-5.105
		c6.174-5.069,12.338-10.151,18.471-15.271c2.941-2.455,5.805-5.005,8.757-7.559C846.992,540.731,849.067,541.147,851.613,541.657
		 M641.948,625.742c8.754,5.478,15.517,12.522,22.492,19.392c-11.26-3.908-21.862-9.266-33.426-13.821
		C634.973,629.295,638.379,627.56,641.948,625.742 M612.208,193.248c0.238,12.042-0.027,23.535,3.194,34.307
		c-0.643,2.757-1.224,5.102-2.856,7.464c-2.342-11.544-5.128-22.665-6.067-34.185C608.027,198.266,609.788,195.904,612.208,193.248
		 M254.651,567.967c3.099,1.537,5.438,3.048,7.717,4.78c1.596,5.55,1.613,11.29,2.065,16.967c0.46,5.784,0.718,11.583,2.181,18.09
		c-1.732-1.336-2.807-2.165-3.559-2.745C260.826,592.514,258.37,580.441,254.651,567.967 M446.25,462.645
		c-0.246,0.15-0.492,0.301-0.738,0.452c-8.401-8.981-16.507-18.198-22.712-28.993c7.021,6.051,14.992,10.79,22.105,16.788
		C445.356,454.832,445.803,458.739,446.25,462.645 M599.582,282.603c-0.239-0.158-0.479-0.316-0.718-0.474
		c2.057-5.581,4.113-11.161,6.09-16.526c3.586-2.621,6.731-5.292,9.837-8.024c2.974-2.617,5.337-5.802,8.307-9.056
		c-0.135,2.947-0.77,5.083-2.082,7.039C614.582,265.148,607.27,274.025,599.582,282.603 M877.303,558.885
		c10.17-3.13,32.603-8.468,34.438-8.16c-4.245,3.084-8.341,6.214-12.18,9.664c-1.353,1.216-2.864,1.566-4.734,1.465
		C888.932,561.534,883.232,560.253,877.303,558.885 M895.719,563.524c-2.775,2.51-5.054,4.571-7.472,6.759
		c-7.91-1.902-14.806-6.188-22.908-8.663c2.983-1.247,5.463-2.014,8.256-1.552C880.739,561.248,887.744,563.237,895.719,563.524
		 M691.947,651.785c-0.542,0.054-1.096,0.211-1.625,0.15c-6.129-0.696-12.026-2.448-17.945-4.073
		c-0.789-0.216-1.524-0.755-2.192-1.265c-5.099-3.887-9.356-8.678-14.273-12.918c1.003-0.54,1.669-0.309,2.285,0.04
		c2.592,1.47,5.208,2.906,7.749,4.462C674.287,643.287,682.636,648.369,691.947,651.785 M126.23,516.427
		c0.066-0.211,0.131-0.421,0.197-0.631c8.564,2.914,17.128,5.828,25.59,8.708c2.103,3.169,4.391,6.033,5.422,9.915
		C147.036,528.422,136.633,522.424,126.23,516.427 M766.218,785.472c4.158,7.573,8.357,15.145,15.055,21.459
		c-3.621,0.651-6.658,1.29-9.688,1.115C768.607,801.964,766.152,792.069,766.218,785.472 M490.617,504.56
		c5.281,6.657,12.72,24.588,13.396,31.804c-4.728-7.221-8.544-14.595-13.41-21.301c-0.772-1.065-0.982-2.361-0.823-3.684
		C490.033,509.27,490.297,507.164,490.617,504.56"/>
	<path clip-path="url(#SVGID_2_)" fill="#BF725A" d="M840.479,108.966c5.018-4.438,10.299-8.536,14.975-13.343
		c-3.467,0.907-5.625,3.683-8.072,5.873C844.887,103.73,841.834,105.616,840.479,108.966"/>
</g>
</svg>
