<?xml version="1.0" encoding="utf-8"?>
<!-- Generator: Adobe Illustrator 17.0.0, SVG Export Plug-In . SVG Version: 6.00 Build 0)  -->
<!DOCTYPE svg PUBLIC "-//W3C//DTD SVG 1.1//EN" "http://www.w3.org/Graphics/SVG/1.1/DTD/svg11.dtd">
<svg version="1.1" id="Layer_1" xmlns="http://www.w3.org/2000/svg" xmlns:xlink="http://www.w3.org/1999/xlink" x="0px" y="0px"
	 width="1084.02px" height="1228.32px" viewBox="0 0 1084.02 1228.32" enable-background="new 0 0 1084.02 1228.32"
	 xml:space="preserve">
<path fill="#BF725A" d="M826.224,350.941c-0.988,0.465-1.977,0.93-3.082,1.45c-5.828,17.724-17.205,32.324-27.11,47.738
	c-14.694,22.861-27.867,46.415-36.163,72.484c-12.472,39.194-12.768,78.188,1.188,117.063c2.444,6.805,4.925,13.602,7.565,20.334
	c1.263,3.218,1.582,6.419,1.192,9.807c-0.641,5.522-1.412,11.005-1.246,16.635c0.101,3.408-1.294,6.861-2.013,10.294
	c-4.518,21.573-9.171,43.124-11.35,65.101c-0.402,4.066-0.714,8.156-0.737,12.237c-0.033,5.648-1.203,11.016-3.043,16.277
	c-2.007,0.213-1.992-1.573-2.53-2.487c-29.104-49.424-49.991-101.955-59.41-158.734c-3.288-19.824-4.678-39.855-5.432-59.926
	c-0.181-4.829-0.052-9.7-0.657-14.477c-1.039-8.227,1.662-15.075,6.115-21.817c18.311-27.715,32.141-57.43,39.062-90.102
	c2.629-12.409,4.182-24.969,3.269-37.642c-1.301-18.073-5.585-35.504-12.375-52.317c-6.607-16.359-15.109-31.777-23.331-47.338
	c-6.232-11.793-12.054-23.777-16.499-36.382c-0.485-1.374-1.344-2.643-1.23-4.194c-0.274-0.252-0.547-0.504-0.82-0.755
	c-2.972,0.364-3.739,2.428-4.219,5.022c-1.458,7.859-3.761,15.505-6.197,23.11c-6.177,19.292-11.776,38.744-16.572,58.434
	c-5.072,20.821-9.232,41.821-9.916,63.25c-1.327,41.605,6.418,81.386,25.769,118.554c3.079,5.914,6.475,11.657,11.583,16.796
	c-1.352,39.947,2.177,79.818,11.717,119.838c-1.968-1.811-3.297-2.847-4.404-4.083c-6.095-6.807-12.744-13.08-19.875-18.72
	c-5.022-3.971-8.319-8.689-10.619-14.545c-4.072-10.373-9.313-20.19-14.919-29.824c-7.03-12.084-16.257-22.287-27.53-30.311
	c-11.262-8.015-24.006-13.259-37.652-15.91c-18.203-3.536-36.393-4.438-54.728-0.341c-6.933,1.55-13.689,3.239-20.05,6.403
	c-0.986,0.491-2.053,0.84-2.118,2.068c0.346,1.192,1.287,1.317,2.18,1.578c3.031,0.883,6.041,1.837,9.075,2.707
	c44.726,12.823,86.343,32.053,124.025,59.591c12.31,8.996,24.293,18.339,35.529,28.64c6.442,5.907,12.814,11.894,19.398,17.639
	c2.912,2.542,4.732,5.395,5.834,9.145c13.493,45.939,33.733,88.76,59.885,128.822c20.77,31.815,45.082,60.775,71.041,88.43
	c4.401,4.688,8.953,9.239,14.017,14.491c-3.385-0.19-5.761-0.637-8.208-1.773c-16.975-7.886-34.086-15.478-51.023-23.444
	c-19.891-9.356-40.145-17.907-57.54-32.014c-10.82-8.775-21.812-17.311-32.08-26.743c-1.969-1.809-3.257-3.997-4.427-6.339
	c-19.333-38.676-44.781-72.81-75.898-102.821c-16.491-15.903-33.715-30.831-52.485-44.03
	c-15.193-10.683-30.564-21.044-46.501-30.588c-7.948-4.759-16.477-8.514-24.013-13.975c-0.263-0.19-0.702-0.138-1.05-0.196
	c-1.164,0.424-1.762,1.29-2.09,2.801c2.989,5.011,6.639,9.928,9.294,15.435c4.603,9.547,8.625,19.336,12.186,29.307
	c9.974,27.919,22.436,54.623,38.322,79.701c16.481,26.018,38.431,45.584,67.287,56.861c24.474,9.564,49.773,16.149,76.204,20.084
	c7.179,6.081,15.075,11.922,22.888,17.874c5.758,4.386,11.669,8.538,17.694,12.475c14.442,9.442,29.789,17.256,45.447,24.528
	c25.743,11.954,51.839,23.168,77.025,36.311c3.827,1.996,7.306,4.321,10.398,7.33c8.261,8.04,16.57,16.031,24.915,23.985
	c16.552,15.777,33.461,31.174,49.637,47.36c11.957,11.963,23.648,24.178,35.486,36.251c3.37,3.437,6.69,6.969,9.866,10.598
	c7.45,8.518,14.722,17.193,22.078,25.792c9.054,10.584,17.455,21.673,25.18,33.252c20.772,31.142,36.884,64.656,50.335,99.514
	c1.675,4.339,3.257,8.663,2.886,13.435c-0.017,0.221,0.49,0.482,0.863,0.825c2.672-1.01,2.521-3.38,2.487-5.55
	c-0.043-2.818-0.981-5.484-1.899-8.114c-11.647-33.363-26.86-65.053-45.415-95.087c-16.12-26.093-35.672-49.63-55.922-72.564
	c-14.638-16.579-30.121-32.392-45.786-47.992c-5.655-5.631-9.169-11.976-11.061-19.498c-2.36-9.381-4.144-18.863-5.582-28.434
	c-2.548-16.954-4.246-33.939-3.436-51.115c0.137-2.903,0.514-5.601,2.731-7.623c2.603-2.374,5.006-4.944,7.893-7.035
	c10.083-7.303,21.21-12.886,31.695-19.519c16.475-10.422,33.109-20.587,46.903-34.686c10.96-11.202,19.648-23.71,24.229-38.829
	c6.459-21.316,7.624-42.719,0.74-64.171c-3.4-10.594-6.873-21.169-10.591-31.655c-3.077-8.676-4.969-17.49-4.797-26.725
	c0.027-1.402,0.454-3.015-0.99-4.111c-2.399,1.708-2.482,1.681-2.94,3.504c-2.146,8.534-6.095,16.3-10.123,24.045
	c-12.489,24.014-25.214,47.898-38.954,71.226c-5.167,8.773-10.549,17.417-15.854,26.108c-5.414,8.874-8.371,18.866-12.907,28.167
	c-20.352,41.73-26.389,85.808-20.335,131.683c1.284,9.722,2.228,19.496,4.777,29.124c-20.555-17.944-39.564-37.273-59.297-56.048
	c0.43-4.153-2.113-7.411-3.178-11.128c-3.664-12.797-4.906-25.919-5.077-39.143c-0.157-12.093,0.968-24.145,2.332-36.145
	c1.023-9.002,2.136-18.065,7.106-26.047c1.168-1.876,1.991-3.96,3.072-5.893c4.185-7.488,9.27-14.378,15.439-20.277
	c5.614-5.369,11.876-10.039,18.3-14.473c17.994-12.415,36.473-24.17,53.203-38.331c8.093-6.85,15.672-14.172,21.286-23.344
	c2.426-3.962,4.458-8.013,5.944-12.397c-0.975-0.301-1.707-0.352-2.375,0.076c-7.592,4.866-16.193,6.169-24.906,7.142
	c-7.019,0.784-14.086,1.342-21.026,2.589c-22.381,4.024-43.172,11.591-60.958,26.526c-16.873,14.167-25.483,31.992-25.858,53.839
	c-0.213,12.391,2.134,24.394,6.587,35.975c0.859,2.236,1.834,4.456,1.331,7.005c-1.605,8.156-2.233,16.389-2.772,24.699
	c-1.07,16.541-2.095,33.007,0.318,49.51c0.431,2.944,1.521,5.852,1.248,9.437c-1.512-1.39-2.632-2.353-3.677-3.393
	c-11.201-11.147-22.023-22.664-32.326-34.635c-14.411-16.747-28.001-34.144-40.938-52.078c-6.706-9.297-9.982-19.338-10.027-30.608
	c-0.042-10.23,0.231-20.453,1.195-30.643c2.031-21.463,5.628-42.703,9.183-63.946c1.404-8.393,2.76-16.788,5.354-24.958
	c4.225-13.31,12.039-24.57,19.782-35.9c10.998-16.095,21.074-32.724,29.393-50.382c15.19-32.242,22.704-65.931,19.071-101.684
	c-2.204-21.692-6.611-42.957-12.56-63.929c-1.654-5.831-3.747-11.571-4.51-17.638L826.224,350.941z M536.744,661.237
	c2.38,0.982,4.688,2.179,6.925,3.462c1.905,1.093,3.658,2.451,4.158,5.327c-7.763-1.341-14.787-3.755-21.59-6.873
	c-1.372-0.629-2.525-1.664-3.101-3.056c-1.535-3.719-3.969-7.094-4.373-11.251c-1.115-0.797-1.6-2.002-2.086-3.209
	c-4.574-11.337-9.154-22.671-13.71-34.016c-0.121-0.3,0.001-0.698,0.03-1.873c6.969,8.616,12.207,17.677,18.367,26.068
	c6.185,8.43,12.906,16.469,19.843,25.25c-7.804-2.924-14.121-6.974-20.227-11.398c-0.739-0.534-1.37-1.279-2.427-0.798
	C523.907,654.034,529.807,658.375,536.744,661.237 M1004.459,727.879c-7.815,1.565-15.664,2.971-23.5,4.433
	c-10.536,1.968-20.936,4.502-31.571,7.855c2.964-6.311,7.042-11.4,10.613-16.725c6.799-10.143,12.603-20.843,18.686-31.382
	c2.764-4.789,6.292-8.001,11.542-9.647c5.876-1.84,11.93-2.599,17.976-3.432c5.322-0.734,10.484-2.157,15.6-3.567
	c4.056,8.639,6.173,27.68,4.414,39.74C1021.498,722.018,1013.546,726.058,1004.459,727.879 M571.209,647.436
	c4.337,3.502,8.738,6.929,12.998,10.523c12.373,10.439,23.403,22.277,34.861,33.668c2.929,2.911,4.988,6.372,6.407,10.244
	c3.81,10.402,6.912,21.016,9.277,31.831c0.887,4.058,1.936,8.069,3.334,12.24c-20.33-14.376-39.244-29.823-56.784-47.324
	C577.082,681.999,577.248,664.234,571.209,647.436 M668.116,424.66c-2.907-5.963-6.306-11.686-9.482-17.518
	c-2.397-4.403-5.333-8.425-8.872-12.553c-1.984-14.464-1.466-29.259-0.049-44.068c9.867,9.202,19.658,18.183,29.267,27.354
	c5.127,4.894,8.47,11.107,11.605,17.383c0.464,0.933,0.493,2.18,0.434,3.266c-0.892,16.148-2.244,32.254-4.52,48.272
	c-0.078,0.54-0.347,1.052-0.739,2.193C679.877,440.29,672.484,433.619,668.116,424.66 M973.245,765.363
	c-15.052,2.592-29.736,6.265-43.121,14.377c-0.106-2.079,0.92-3.599,1.617-5.199c4.077-9.368,8.643-18.5,13.209-27.637
	c1.349-2.7,3.189-4.435,6.09-5.179c6.465-1.657,12.869-3.59,19.386-4.994c4.978-1.071,9.945,0.215,14.807,1.349
	c5.766,1.344,11.532,2.575,17.435,3.23c6.521,0.726,12.946,0.654,19.971-1.284c-2.418,7.213-6.059,13.199-9.993,18.445
	C999.451,762.533,986.209,763.131,973.245,765.363 M792.454,522.994c2.445-11.581,5.193-23.098,7.543-34.697
	c0.953-4.708,3.553-8.001,7.135-10.838c3.482-2.76,6.909-5.592,10.353-8.399c7.662-6.246,14.536-13.213,19.855-21.615
	c0.274-0.432,0.829-0.684,1.257-1.023c1.475,0.924,0.923,2.344,0.935,3.507c0.093,8.736-0.643,17.401-1.694,26.086
	c-0.767,6.337-3.301,11.618-6.929,16.612c-5.318,7.321-10.289,14.921-15.989,21.928c-5.344,6.568-10.563,13.449-18.527,17.341
	c-2.057,1.005-3.876,2.494-6.209,4.027C790.281,531.165,791.587,527.103,792.454,522.994 M657.74,302.8
	c4.281,2.017,5.952,5.996,8.371,8.991c5.131,6.351,10.462,12.439,16.528,17.893c1.38,1.239,2.672,2.58,4.09,3.772
	c2.886,2.423,4.042,5.475,4.28,9.235c0.989,15.57,0.768,31.138,0.417,46.924c-1.841-0.108-1.822-1.726-2.453-2.591
	c-1.851-2.536-3.084-5.702-5.359-7.72c-9.329-8.271-14.612-19.249-20.685-29.722c-3.506-6.045-7.047-12.07-10.694-18.31
	C653.711,321.58,655.514,312.33,657.74,302.8 M617.994,760.567c-2.466,0.127-4.767-0.245-7.047-1.21
	c-19.654-8.328-36.445-20.501-49.977-37.074c-0.464-0.57-0.933-1.156-0.717-2.229c1.2-0.619,2.319,0.323,3.402,0.638
	c10.916,3.172,22.111,4.629,33.388,5.635c0.741,0.066,1.482,0.108,2.225,0.143c7.936,0.376,14.463,3.664,20.312,8.997
	c3.794,3.461,8.251,6.201,12.449,9.211c5.969,4.278,11.975,8.507,17.966,12.757C639.006,758.3,628.548,760.027,617.994,760.567
	 M793.072,508.373c-3.191,15.389-6.27,30.237-9.492,45.779c-1.708-2.242-3.13-3.998-4.43-5.839
	c-3.613-5.121-7.565-9.966-11.615-14.745c-2.504-2.953-4.88-6.013-6.802-9.414c-1.046-1.855-1.497-3.753-1.506-5.827
	c-0.059-10.896,5.075-35.981,10.055-47.813C775.216,485.379,786.665,495.466,793.072,508.373 M533.476,646.316
	c-1.298-9.733-2.899-20.619-7.514-31.044c2.449,0.271,3.763,1.648,5.232,2.711c10.212,7.384,20.388,14.816,30.629,22.159
	c3.121,2.238,5.195,5.009,6.507,8.694c4.006,11.251,6.029,22.915,7.63,34.668c0.462,3.388,1.924,6.789,0.593,11.083
	C561.307,679.274,546.804,664.109,533.476,646.316 M726.942,371.165c-10.319,12.52-21.911,24.031-33.558,36.721
	c0.66-14.489,1.244-28.139,1.181-41.775c2.219-3.699,4.079-7.517,5.601-11.484c1.587-4.137,4.451-7.278,7.815-9.92
	c5.478-4.302,10.405-9.152,15.064-14.345C726.192,337.721,728.778,360.158,726.942,371.165 M716.071,306.616
	c-7.524,17.372-12.374,35.895-21.456,53.828c-0.189-2.716-0.369-4.464-0.424-6.216c-0.511-16.524-2.407-32.915-4.719-49.265
	c-0.313-2.215-0.241-4.288,0.392-6.51c1.777-6.24,2.504-12.694,3.385-19.113c0.627-4.562,1.429-9.099,2.151-13.648
	C703.568,278.795,710.397,292.251,716.071,306.616 M860.578,746.082c-0.339-0.193-0.68-0.386-1.021-0.58
	c-0.182-2.364-0.585-4.735-0.513-7.091c0.6-19.653,3.899-38.657,13.542-56.154c1.293-2.349,2.782-4.203,5.076-5.657
	c5.432-3.448,10.95-6.663,17.539-9.04c-8.755,17.166-8.704,35.604-11.136,53.627C875.185,728.454,866.378,735.789,860.578,746.082
	 M808.588,449.204c-3.764,13.133-8.226,26.471-11.382,41.123c-6.431-9.082-12.704-17.181-17.594-26.239
	c-5.124-9.494-5.069-9.456-0.598-19.485c3.755-8.424,8.055-16.547,13.159-25.491C796.583,430.327,803.411,438.997,808.588,449.204
	 M922.102,802.999c0.915-3.229,3.718-5.384,6.709-7.127c6.359-3.707,13.261-6.014,20.48-6.439
	c11.93-0.702,23.836-1.388,36.599-3.936c-22.458,17.621-47.373,29.716-69.473,47.741
	C917.605,822.427,919.383,812.605,922.102,802.999 M548.92,702.013c-1.784-0.816-3.751-1.483-4.928-3.396
	c-6.412-10.425-12.473-21.033-18.104-33.058c8.247,3.807,16.143,5.724,24.055,7.583c2.721,0.639,4.48,2.475,6.14,4.507
	c1.17,1.433,2.211,3.014,3.57,4.241c11.715,10.581,21.958,22.69,34.085,32.839c0.266,0.223,0.399,0.604,1.022,1.587
	C578.588,712.931,563.39,708.628,548.92,702.013 M991.958,780.86c-1.75,1.432-3.809,1.567-5.676,1.917
	c-10.027,1.883-20.111,3.507-30.353,3.678c-11.272,0.19-21.835,2.829-31.558,9.182c1.078-8.329,5.668-13.596,12.832-17.077
	c11.259-5.471,23.189-8.651,35.442-10.838c10.036-1.791,20.247-2.337,30.252-4.36c2.3-0.465,4.448-1.811,7.533-1.46
	C1004.512,768.927,998.715,775.331,991.958,780.86 M653.672,421.681c12.2,9.13,22.987,18.779,31.877,31.231
	c-1.102,11.632-3.639,23.51-6.156,36.679C666.255,468.084,658.078,445.953,653.672,421.681 M933.039,657.58
	c0.77,1.516-0.247,2.512-0.726,3.693c-1.949,4.794-3.644,9.679-4.682,14.767c-0.26,1.271-0.576,2.529-0.806,3.805
	c-1.657,9.121-5.361,16.555-14.257,21.095c-6.035,3.082-11.348,7.574-17.746,11.957c2.192-20.878,11.774-37.293,23.923-52.585
	C923.949,658.922,928.489,658.132,933.039,657.58 M607.732,543.932c-4.459,2.464-9.552,2.515-14.427,3.028
	c-10.178-5.472-20.27-10.758-31.533-15.54c12.692-5.926,25.041-9.398,38.274-9.338c2.534,0.011,4.522,1.193,6.605,2.483
	c5.503,3.408,10.86,6.954,15.672,12.332C616.699,538.975,612.223,541.449,607.732,543.932 M691.415,430.548
	c0.828-4.963,4.229-8.936,8.046-12.182c7.599-6.465,15.75-12.29,22.551-19.957c0.755,1.9-0.106,3.376-0.503,4.835
	c-4.129,15.208-9.714,29.848-16.668,44.009c-1.888,3.844-4.367,6.67-7.953,8.76c-3.012,1.756-5.978,3.592-9.466,5.695
	C688.786,450.716,689.744,440.573,691.415,430.548 M788.894,539.982c6.483-3.821,12.968-7.658,19.471-11.47
	c6.444-3.778,12.306-8.393,18.38-13.991c0.071,3.527-1.191,5.406-2.017,7.372c-3.803,9.043-7.837,17.981-12.575,26.59
	c-1.005,1.827-2.018,3.632-3.744,4.747c-7.533,4.868-15.159,9.586-24.604,13.543C785.637,557.129,787.255,548.616,788.894,539.982
	 M777.248,551.049c2.612,1.396,4.268,4.488,5.446,7.864c-2.745,14.585-4.822,29.606-8.774,45.561
	c-8.054-21.078-14.085-41.332-15.115-63.466C765.189,544.778,771.259,547.851,777.248,551.049 M820.804,415.158
	c5.627-3.508,8.015-9.961,13.153-14.797c2.261,10.556,3.758,20.575,4.627,31.021c-10.013,10.348-19.188,21.517-30.674,30.512
	C812.349,446.247,817.362,430.991,820.804,415.158 M678.649,266.353c1.986,2.442,2.847,5.145,3.302,8.078
	c2.158,13.923,4.271,27.853,6.395,41.782c0.138,0.901,0.431,1.815-0.162,2.825c-2.88-1.291-3.865-4.365-5.684-6.513
	c-6.042-7.148-11.772-14.569-15.814-23.166c-2.612-5.555-3.941-10.894-1.871-17.018c1.945-5.756,3.14-11.767,4.875-18.475
	C673.091,258.66,675.66,262.677,678.649,266.353 M807.421,441.167c-1.954-11.335-6.518-22.019-8.44-33.725
	c5.239-8.883,10.567-17.916,16.57-28.097c0.962,6.289,3.534,10.505,6.131,14.521c-1.027,12.657-7.228,39.232-11.837,50.684
	C808.012,443.725,807.606,442.242,807.421,441.167 M1009.821,630.083c3.254,10.879,6.167,20.625,9.106,30.451
	c-3.438,4.941-8.524,7.626-13.492,10.332c-6.426,3.499-13.037,6.658-20.596,10.484
	C993.425,664.152,1002.51,648.221,1009.821,630.083 M856.986,696.792c-0.216,1.673-0.282,2.784-0.512,3.861
	c-0.93,4.377-1.286,8.814-1.206,13.269c0.16,8.91,0.476,17.812,1.457,26.684c0.556,5.02,0.331,9.824-2.657,14.373
	c-1.941,2.954-3.246,6.402-3.965,10.867C842,747.571,841.565,713.77,856.986,696.792 M680.052,777.002
	c-11.082-8.334-20.807-16.693-31.288-23.411c-3.454-10.581-2.41-21.258-3.907-31.643
	C658.367,738.907,668.951,757.483,680.052,777.002 M948.828,655.764c6.332-1.393,12.564-2.19,18.895-4.46
	c-9.414,18.031-25.914,28.011-41.201,39.405C930.839,677.011,941.647,667.551,948.828,655.764 M914.226,661.345
	c-1.105,4.691-4.473,7.743-6.84,11.308c-8.271,12.46-13.116,26.041-14.711,40.944c-1.258,1.75-2.592,3.446-4.951,4.079
	c-0.909-11.998,4.109-36.805,10.425-51.255C903.388,664.295,908.689,662.747,914.226,661.345 M547.391,513.672
	c3.564-0.951,7.134-1.91,10.745-2.653c7.044-1.449,14.559-0.509,22.578,2.792c-10.206,3.018-18.378,8.941-26.727,14.215
	c-7.537-2.771-14.729-5.415-22.773-8.374C536.979,516.888,542.111,515.08,547.391,513.672 M622.129,762.842
	c10.569-0.853,21.138-1.706,32.113-2.593c7.554,5.868,15.393,11.956,23.232,18.044C658.333,774.831,640.096,769.568,622.129,762.842
	 M679.06,229.606c4.813,10.364,9.655,20.63,15.014,31.027c-3.081,9.909-4,20.4-6.052,30.827
	C684.021,270.968,679.945,250.553,679.06,229.606 M1027.775,718.896c-0.266,6.459-2.018,11.97-3.714,17.978
	c-13.332,4.574-26.287,1.35-39.31-2.347C999.548,730.846,1014.987,729.609,1027.775,718.896 M597.667,549.295
	c11.548-3.423,22.144-3.759,32.774-2.51c3.182,2.942,4.875,6.676,7.556,10.668c-7.662,0.668-15,0.668-21.758,3.064
	C610.214,556.877,604.441,553.389,597.667,549.295 M499.463,596.724c5.507,3.514,11.036,6.993,16.511,10.556
	c3.798,2.471,6.603,5.711,8.295,10.049c2.825,7.243,4.752,14.653,4.988,22.715C517.965,626.571,508.501,611.859,499.463,596.724
	 M606.295,725.191c-14.796-1.759-28.978-2.948-42.894-6.517c-8.024-2.058-11.663-7.729-15.549-14.927
	c17.115,8.205,34.56,12.352,52.581,16.052C602.312,721.528,604.061,723.136,606.295,725.191 M715.635,401.108
	c-7.85,6.383-16.374,12.162-23.328,21.48c0.191-3.71,0.319-6.161,0.456-8.804c10.304-12.599,22.369-23.661,33.297-36.609
	C726.192,387.29,723.349,394.837,715.635,401.108 M661.955,284.853c6.137,16.328,17.506,27.74,27.475,40.672
	c0.178,1.975,0.391,4.316,0.718,7.945c-11.669-11.583-21.683-22.953-30.958-35.081C659.295,294.111,660.611,290.12,661.955,284.853
	 M773.66,457.304c3.02,7.498,6.63,13.787,10.721,19.785c3.116,4.572,6.624,8.857,9.664,13.503c2.492,3.809,1.855,7.13-0.248,11.395
	c-9.142-11.529-17.365-22.946-23.42-36.077C771.482,463.015,772.396,460.615,773.66,457.304 M806.08,466.204
	c6.465-2.843,10.983-8.018,15.618-13.06c5.486-5.969,10.978-11.933,16.713-18.166c1.995,4.806-0.851,7.935-2.724,11.126
	c-5.437,9.264-13.72,15.869-21.711,22.745c-3.36,2.891-7.183,5.202-10.946,8.142C804.025,473.473,805.019,469.953,806.08,466.204
	 M639.522,560.262c4.244,7.467,7.739,15.034,10.74,23.032c-10.176-7.001-20.111-14.081-31.29-21.098
	C626.34,560.819,632.766,559.699,639.522,560.262 M638.945,740.026c-2.688-12.019-5.231-24.08-9.48-35.745
	c7.316,5.677,12.765,12.28,13.018,22.159c0.208,8.134,1.164,16.226,2.535,24.404C642.547,747.486,639.895,744.273,638.945,740.026
	 M717.167,310.69c2.702,5.093,3.899,9.681,4.843,14.299c0.38,1.866-1.019,3.416-2.243,4.898c-4.161,5.036-9.173,9.141-15.015,14.01
	C709.318,332.602,712.294,321.786,717.167,310.69 M781.314,581.56c5.267-3.828,11.012-7.021,17.501-10.341
	c-7.133,12.373-15.504,23.183-22.405,35.435C778.033,598.345,779.658,590.036,781.314,581.56 M827.169,371.757
	c2.716,7.852,4.764,15.734,5.802,23.942c-3.186,4.724-5.806,9.738-10.926,13.609C824.3,396.517,825.817,384.207,827.169,371.757
	 M585.025,514.704c3.274,0.826,6.794,2.2,10.071,4.627c-13.039,0.193-24.469,6.061-36.591,9.462
	C566.375,522.548,575.122,518.028,585.025,514.704 M652.858,417.123c-1.487-5.249-1.742-10.8-2.82-16.666
	c2.038,0.505,2.855,1.654,3.533,2.867c4.656,8.342,9.277,16.702,14.16,25.503C661.54,425.901,658.145,420.467,652.858,417.123
	 M797.772,568.365c-5.004,2.713-9.85,5.717-14.98,8.721c-1.07-2.488,0.248-4.596,0.55-6.953c7.941-3.605,15.619-7.473,23.288-12.58
	C804.572,562.442,802.054,566.042,797.772,568.365 M675.277,233.064c0.273-0.009,0.546-0.017,0.818-0.027
	c1.222,9.712,2.445,19.424,3.773,29.979c-3.804-4.042-6.766-7.765-9.054-12.603C672.336,244.5,673.806,238.782,675.277,233.064
	 M1023.449,672.679c-7.415,2.684-14.683,3.699-22.791,4.698c3.114-3.584,7.152-4.252,10.125-6.536
	c2.922-2.243,5.854-4.468,9.213-7.029C1021.809,666.889,1022.482,669.697,1023.449,672.679 M833.479,493.257
	c-0.261,7.136-2.211,12.073-6.571,16.805c-1.753,1.904-3.284,4.143-5.362,5.588c-3.436,2.391-6.41,5.462-10.49,7.072
	C819.494,513.714,826.337,503.514,833.479,493.257 M698.627,458.276c-4.432,9.565-9.877,17.14-15.03,25.022
	c1.051-6.048,2.101-12.097,3.186-18.349C690.544,462.83,694.008,460.879,698.627,458.276 M652.153,348.474
	c-3.3-3.201-1.197-6.86-0.547-11.462c6.319,7.652,9.374,16.202,13.923,23.822C661.061,356.723,656.509,352.699,652.153,348.474
	 M861.123,691.422c1.189-3.319,4.056-5.609,8.033-7.233c-5.604,10.483-8.602,21.214-11.081,32.163
	C856.932,707.732,858.257,699.422,861.123,691.422 M527.035,517.99c-0.724,0.192-1.454,0.023-2.351-0.748
	c2.969-2.498,5.847-5.028,8.859-7.388c0.995-0.78,2.342-1.041,3.685-1.057c4.609-0.054,9.224-0.434,13.869,0.772
	C542.753,511.728,535.222,515.81,527.035,517.99 M936.705,657.411c2.607-0.942,5.334-1.144,9.105-1.497
	c-4.652,7.501-9.8,13.57-15.083,19.476C931.578,668.909,933.716,663.107,936.705,657.411 M817.088,376.926
	c2.051-4.195,4.122-8.43,6.788-13.88c0.548,9.538-0.554,17.654-1.363,26.78C819.114,385.593,818.143,381.329,817.088,376.926
	 M758.837,537.7c-0.533-3.24-0.4-6.323-0.112-10.066c3.99,2.366,5.307,6.263,7.739,9.171c2.448,2.927,4.842,5.901,7.694,9.384
	C768.078,544.142,763.631,540.641,758.837,537.7 M530.483,509.151c-3.491,2.788-6.5,4.73-8.896,7.567
	c-4.057-1.221-8.031-2.419-13.29-4.001C516.146,510.49,522.78,509.6,530.483,509.151 M796.747,411.487
	c1.957,6.945,3.736,13.258,5.772,20.486c-4.682-5.846-7.252-10.615-8.669-15.82C794.611,414.925,795.466,413.55,796.747,411.487
	 M627.614,542.841c0.227,0.27,0.32,0.651,0.672,1.405c-4.017-0.236-7.806-0.458-12.405-0.729c2.933-2.693,5.859-3.289,8.722-4.11
	C625.692,540.643,626.673,541.725,627.614,542.841"/>
<rect y="-0.004" fill="none" width="1084.021" height="1228.324"/>
</svg>
