<?xml version="1.0" encoding="utf-8"?>
<!-- Generator: Adobe Illustrator 17.0.0, SVG Export Plug-In . SVG Version: 6.00 Build 0)  -->
<!DOCTYPE svg PUBLIC "-//W3C//DTD SVG 1.1//EN" "http://www.w3.org/Graphics/SVG/1.1/DTD/svg11.dtd">
<svg version="1.1" id="Layer_1" xmlns="http://www.w3.org/2000/svg" xmlns:xlink="http://www.w3.org/1999/xlink" x="0px" y="0px"
	 width="225px" height="225px" viewBox="0 0 225 225" enable-background="new 0 0 225 225" xml:space="preserve">
<g id="_x23_ffffffff">
</g>
<g id="_x23_000000ff">
	<path fill="#FFFFFF" d="M21.14,37.16c3.27-0.5,6.59-0.37,9.88-0.38c58.34,0.01,116.68-0.01,175.02,0.01
		c4.29,0.06,8.89,1.03,12.11,4.06c3.15,3.15,4.6,7.75,4.48,12.15c-0.02,36.99-0.01,73.99-0.01,110.98
		c0.04,6.4-1.54,13.01-5.43,18.19c-2.6,3.51-6.76,6.09-11.23,6.04c-58.65,0.02-117.31-0.01-175.97,0.02
		C15.27,189.75,1,175.71,2.37,160.95C2.41,124.34,2.35,87.72,2.4,51.1c-0.1-3.34,2.62-5.73,4.8-7.89
		C11.07,39.78,16.11,38,21.14,37.16 M19.68,50.62C50.43,75.56,81.6,100,112.51,124.76c31.08-24.8,62.23-49.52,93.27-74.38
		c-60.28,0-120.55,0.01-180.82,0C23.19,50.38,21.43,50.48,19.68,50.62 M16,65.27c0.07,33.27-0.13,66.55,0.1,99.81
		c1.44,4.44,5.38,8.44,10,9.49c59.61,0.1,119.23,0.02,178.84,0.04c3.49,0.32,4.06-4.05,4.04-6.61c0.05-34.22,0.01-68.44,0.01-102.66
		c-30.63,24.57-61.32,49.05-91.98,73.58c-2.49,2.25-6.64,2.21-9.11-0.06C77.28,114.31,46.54,89.92,16,65.27z"/>
</g>
</svg>
