<?xml version="1.0" encoding="utf-8"?>
<!-- Generator: Adobe Illustrator 17.0.0, SVG Export Plug-In . SVG Version: 6.00 Build 0)  -->
<!DOCTYPE svg PUBLIC "-//W3C//DTD SVG 1.1//EN" "http://www.w3.org/Graphics/SVG/1.1/DTD/svg11.dtd">
<svg version="1.1" id="Layer_1" xmlns="http://www.w3.org/2000/svg" xmlns:xlink="http://www.w3.org/1999/xlink" x="0px" y="0px"
	 width="860px" height="900px" viewBox="0 0 860 900" enable-background="new 0 0 860 900" xml:space="preserve">
<g id="_x23_f7f7f7ff">
</g>
<g id="_x23_000000ff">
	<path fill="#FFFFFF" d="M124.47,75.56C166.76,47.05,219.58,35,270.09,41.88c31.49,4.23,62.01,15.74,88.38,33.5
		c1.7,1.08,3.41,2.82,5.63,2.08c10.3-1.88,20.67-3.44,31.12-4.24c41.38-4.1,83.48-1.22,123.9,8.66c10.72,2.59,21.31,5.74,31.75,9.32
		c75.61,25.77,141.96,77.36,186,143.97c27.11,40.69,45.93,86.86,55.09,134.88c2.27,12.19,4.02,24.49,5.21,36.82
		c2.64,32.69,1.46,65.76-4.47,98.04c-0.12,1.35-0.73,2.96,0.31,4.13c18.32,26.65,30.49,57.56,34.88,89.63
		c4.58,32.28,1.55,65.58-8.74,96.52c-16.22,48.71-50.84,90.91-95.32,116.5c-40.06,23.41-87.99,32.61-133.92,26.42
		c-8.48-1.12-16.84-2.97-25.16-4.93c-23.83-6.32-46.38-16.97-66.75-30.78c-8.37,1.05-16.66,2.76-25.07,3.61
		c-3.57,0.61-7.22,0.43-10.77,1.15c-40.61,3.44-81.75,0.58-121.37-9.04c-76.19-18.59-145.84-62.57-195.44-123.31
		c-26.44-32.12-47.37-68.77-61.59-107.86c-11.06-30.17-17.92-61.83-20.93-93.79c-2.84-33.79-1.19-67.91,4.85-101.27
		c-30.34-43.02-43.12-97.76-35.56-149.8c1.66-12.66,4.76-25.12,8.72-37.25C55.56,140.46,85.6,101.48,124.47,75.56 M113.82,148.08
		c-21.17,25.95-34.07,58.5-36.39,91.9c-0.29,6.68-0.25,13.37-0.14,20.06c0.12,9.15,1.85,18.18,3.54,27.15
		c1.31,6.03,3.18,11.91,5.02,17.79c6.75,19.58,17.4,37.64,30.51,53.61c2.23,1.9,0.88,4.83,0.48,7.24
		c-3.91,17.89-6.66,36.05-7.85,54.33c-1.56,22.66-0.31,45.46,2.92,67.93c8.46,56.16,32.21,109.91,68.05,153.97
		c24.63,30.45,54.84,56.36,88.7,76.04c35.04,20.49,74.05,34.03,114.16,40.07c29.52,4.2,59.62,4.69,89.17,0.52
		c12.75-1.22,25.18-4.54,37.82-6.37c14.27,12,30.24,22.1,47.61,28.98c30.34,12.29,64.4,14.73,96.33,7.81
		c29.54-6.5,57.17-21.4,78.84-42.5c21.14-20.31,36.7-46.38,44.47-74.66c10.33-37.58,7.02-78.9-9.95-114.06
		c-6.37-13.87-15.36-26.28-24.71-38.25c1.37-10.87,4.4-21.56,5.77-32.47c2.16-16.29,3.72-32.69,3.46-49.14
		c0.09-15.46-1.5-30.86-3.52-46.16c-6.95-45.24-23.53-89-48.65-127.29c-41.54-63.92-106.42-112.37-179.74-133.4
		c-44.23-12.95-91.24-16.01-136.8-9.27c-10.79,1.39-21.38,4.02-32.09,5.8c-6.44-4.32-12.29-9.53-18.88-13.67
		c-26.76-17.62-58.8-27.49-90.91-26.83C192.28,86.66,144.31,110.21,113.82,148.08z"/>
	<path fill="#FFFFFF" d="M376.91,211.59c25.88-3.92,52.24-4.23,78.27-1.64c25.51,2.4,50.82,7.57,75,16.09
		c17.37,6.32,34.37,14.32,48.95,25.82c11.55,9.09,21.67,20.81,26.06,35.07c4.33,15.41,1.69,32.7-7.08,46.11
		c-7.04,10.95-18.8,18.74-31.65,20.88c-11.7,1.99-24.25,0.67-34.67-5.29c-14.7-8.22-25.37-21.73-39.04-31.37
		c-12.46-9.29-27.31-15.01-42.61-17.44c-11.05-1.39-22.19-1.51-33.3-0.93c-13.42,1.11-27.15,3.07-39.23,9.4
		c-7.62,4.01-14.35,10.58-16.71,19.06c-2.62,10.06-1.04,21.74,6.15,29.6c6.39,6.97,15.34,10.78,24.06,13.95
		c18.57,6,37.77,9.77,56.75,14.27c22.69,5.42,45.63,9.96,67.92,16.99c18.03,5.49,35.68,12.54,52.08,21.89
		c17.74,10.19,34.03,23.69,45.03,41.12c13.16,20.48,17.49,45.72,14.95,69.67c-1.53,20.65-8.43,40.93-19.82,58.24
		c-10.67,16.27-25.15,29.82-41.44,40.37c-24.89,16.12-53.58,25.71-82.72,30.45c-2.58,0.5-5.21,0.67-7.78,1.18
		c-25.59,3.4-51.53,2.8-77.14,0c-2.93-0.6-5.93-0.56-8.85-1.14c-21.03-3.02-41.85-7.83-61.84-15.07
		c-20.84-7.62-41.06-17.71-58.19-31.97c-13.01-10.83-24.37-24.5-29.5-40.86c-4.61-14.3-3.55-30.31,2.78-43.91
		c5.09-11.03,15.03-19.61,26.69-23c12.8-3.67,27.13-3.39,39.16,2.7c13.12,6.59,23,17.79,33.25,28
		c12.18,12.59,25.57,24.5,41.65,31.87c18.28,8.65,38.9,11.25,58.95,10.25c15.88-0.93,32.16-4.39,45.54-13.39
		c8.44-5.73,15.5-14.27,17.3-24.53c1.97-11.31-1.07-24.19-10.24-31.68c-10.36-8.61-23.82-11.85-36.48-15.48
		c-23.32-5.85-46.68-11.5-70.01-17.29c-20.51-5.2-41.3-9.55-61.26-16.66c-20.09-7.19-39.79-16.7-55.63-31.24
		c-15.91-14.21-26.72-33.71-31.18-54.51c-5.43-25.57-4.83-52.86,4.37-77.51c8.33-22.51,24.44-41.62,44.03-55.25
		C315.29,226.31,346.01,216.5,376.91,211.59z"/>
</g>
</svg>
