<?xml version="1.0" encoding="utf-8"?>
<!-- Generator: Adobe Illustrator 17.0.0, SVG Export Plug-In . SVG Version: 6.00 Build 0)  -->
<!DOCTYPE svg PUBLIC "-//W3C//DTD SVG 1.1//EN" "http://www.w3.org/Graphics/SVG/1.1/DTD/svg11.dtd">
<svg version="1.1" id="Layer_1" xmlns="http://www.w3.org/2000/svg" xmlns:xlink="http://www.w3.org/1999/xlink" x="0px" y="0px"
	 width="225px" height="225px" viewBox="0 0 225 225" enable-background="new 0 0 225 225" xml:space="preserve">
<g id="_x23_ffffffff">
	<path fill="#FFFFFF" d="M0,223.24c1.26-0.09,1.86,0.5,1.82,1.76H0V223.24z"/>
</g>
<g id="_x23_000000ff">
	<path fill="#FFFFFF" d="M113.61,0h4.13c16.06,0.87,32.13,4.4,46.49,11.84c25.34,12.59,45.3,35.38,54.64,62.07
		c4.01,11.17,5.71,23.01,6.13,34.84v2.73c-0.57,18.21-5.23,36.36-14.41,52.15c-13.2,23.18-35.1,41.24-60.39,49.73
		c-28.68,9.83-61.37,7.25-88.07-7.15C42.45,212.54,22.74,218.77,3.04,225H1.82c0.04-1.26-0.56-1.85-1.82-1.76v-1.23
		c6.25-19.02,12.93-37.9,19.18-56.93c-15.9-26.6-19.54-60.11-9.64-89.49c8.73-27.05,28.7-50.1,53.92-63.1
		C78.86,4.32,96.24,0.4,113.61,0 M90.22,26.18c-19.7,5.57-37.27,18.31-48.63,35.34c-9.52,14.21-14.98,31.31-14.6,48.47
		c-0.26,18.08,5.92,36.02,16.51,50.6c1.08,1.16,0.45,2.78,0.03,4.06c-3.04,8.82-6.04,17.65-9.02,26.49
		c9.88-2.93,19.64-6.29,29.51-9.24c1.41-0.61,2.6,0.72,3.78,1.26c16.84,10.73,37.49,15.28,57.28,12.71
		c19.41-2.16,37.91-11.31,51.63-25.16c12.4-12.25,20.88-28.39,23.96-45.55c3.53-19.44,0.31-40.15-9.51-57.35
		c-9.3-16.81-24.34-30.32-41.99-37.86C130.76,21.87,109.52,20.72,90.22,26.18z"/>
	<path fill="#FFFFFF" d="M69.2,62.15c4.42-2.66,9.71-3.49,14.78-3.82c3.47-0.46,6.27,2.34,7.54,5.28c3.01,7.08,5.87,14.23,8.92,21.3
		c0.64,1.39,0.85,3.05,0.27,4.51c-1.74,4.86-5.41,8.64-8.84,12.36c9.12,13.38,21.38,25.44,36.77,31.24
		c3.23-3.56,6.31-7.26,9.19-11.12c1.78-2.73,5.52-3.37,8.36-2.01c7.65,3.07,14.95,6.97,22.36,10.55c3.07,1.21,3.87,4.8,3.47,7.75
		c-0.61,5.6-1.86,11.7-6.27,15.61c-5.26,4.52-11.71,8.37-18.84,8.43c-10.81,0.64-21.1-3.53-31.01-7.34
		c-18.84-7.97-33.66-23.12-45.17-39.69c-6.58-8.7-11.66-19.13-11.66-30.25C59.51,76.53,62.21,67.45,69.2,62.15z"/>
</g>
</svg>
